<?xml version="1.0" standalone="no"?>
<!DOCTYPE svg PUBLIC "-//W3C//DTD SVG 20010904//EN"
 "http://www.w3.org/TR/2001/REC-SVG-20010904/DTD/svg10.dtd">
<svg version="1.0" xmlns="http://www.w3.org/2000/svg"
 width="204.000000pt" height="204.000000pt" viewBox="0 0 204.000000 204.000000"
 preserveAspectRatio="xMidYMid meet">

<g transform="translate(0.000000,204.000000) scale(0.100000,-0.100000)"
fill="#000000" stroke="none">
<path d="M885 1813 c-72 -40 -95 -90 -94 -203 0 -47 6 -101 13 -120 l13 -35
11 55 c7 30 15 78 20 105 9 57 -2 54 144 39 51 -5 74 -3 99 10 18 9 33 16 35
16 2 0 15 -15 29 -34 18 -23 29 -56 37 -103 5 -37 13 -74 17 -81 12 -21 41 95
41 160 0 66 -45 175 -82 197 -15 9 -60 16 -128 18 -100 4 -108 2 -155 -24z"/>
<path d="M813 1156 c-53 -48 -89 -129 -102 -228 -5 -48 -9 -52 -37 -60 -47
-12 -94 -70 -94 -116 1 -68 27 -175 46 -189 23 -17 54 -17 54 0 0 21 -11 27
-31 16 -24 -13 -34 10 -49 109 -9 62 -8 78 6 107 31 66 127 83 181 33 35 -33
41 -72 26 -158 -19 -103 -19 -103 -43 -90 -16 9 -22 8 -26 -5 -9 -23 1 -28 33
-18 26 9 29 16 45 99 12 65 14 99 7 126 -10 39 -46 74 -87 85 -24 6 -24 8 -18
67 7 75 55 177 96 206 26 19 58 60 46 60 -2 0 -26 -20 -53 -44z"/>
<path d="M1212 1143 c53 -54 72 -99 87 -208 18 -125 15 -188 -10 -203 -31 -20
-23 -74 14 -86 37 -13 61 2 65 42 2 23 -3 34 -21 47 -22 14 -24 24 -30 118
-10 175 -37 260 -97 311 -52 44 -57 29 -8 -21z m126 -422 c8 -4 12 -19 10 -32
-2 -18 -9 -24 -28 -24 -19 0 -26 6 -28 24 -3 20 11 41 28 41 3 0 11 -4 18 -9z"/>
</g>
</svg>
