<?xml version="1.0" encoding="UTF-8"?>
<svg version="1.1" xmlns="http://www.w3.org/2000/svg" width="244" height="243">
<path d="M0 0 C80.52 0 161.04 0 244 0 C244 80.19 244 160.38 244 243 C163.48 243 82.96 243 0 243 C0 162.81 0 82.62 0 0 Z " fill="#6295A1" transform="translate(0,0)"/>
<path d="M0 0 C80.52 0 161.04 0 244 0 C244 80.19 244 160.38 244 243 C163.48 243 82.96 243 0 243 C0 162.81 0 82.62 0 0 Z M47 31 C46.02804688 31.79664062 45.05609375 32.59328125 44.0546875 33.4140625 C22.67954513 51.88709677 7.60110652 79.67094187 5 108 C3.99785909 123.10815686 5.1000081 137.37503036 9 152 C9.17660156 152.67321289 9.35320313 153.34642578 9.53515625 154.04003906 C14.62620498 172.73550135 25.08306309 188.48018286 37.9375 202.75 C38.64688721 203.5395105 38.64688721 203.5395105 39.37060547 204.3449707 C40.5370709 205.60486353 41.76393886 206.80831028 43 208 C43.66 208 44.32 208 45 208 C45.0093457 206.97753174 45.01869141 205.95506348 45.02832031 204.90161133 C45.06871576 201.04507606 45.13460084 197.18929782 45.20751953 193.33325195 C45.23544592 191.67612562 45.25679868 190.01887309 45.27099609 188.36157227 C45.43359583 170.43766148 48.85362327 155.78939537 61.49609375 142.35546875 C69.49688786 134.82898069 78.71605403 131.25783398 89 128 C88.38033431 130.7111778 87.55077564 133.15859403 86.46484375 135.71484375 C84.81727451 140.05916557 84.50152731 143.94585144 84.5625 148.5625 C84.56572266 149.33319824 84.56894531 150.10389648 84.57226562 150.89794922 C84.75692664 158.65530359 86.57295632 165.65385885 89 173 C87.02 173.99 87.02 173.99 85 175 C84.34910172 180.78079064 84.34910172 180.78079064 87.125 185.5625 C90.68392876 187.34196438 92.25019194 187.2227635 96 186 C98.01951062 185.06402685 98.01951062 185.06402685 99 183 C99.5477126 179.35618979 99.73799023 176.18078437 97.75 173 C95.75709864 171.66924071 95.75709864 171.66924071 92 172 C91.505 166.06 91.505 166.06 91 160 C97.77596641 168.36183088 104.43436641 176.7850316 110.81347656 185.45507812 C115.57178832 192.01380964 115.57178832 192.01380964 121 198 C121.66 198 122.32 198 123 198 C124.53793676 196.20297987 124.53793676 196.20297987 126.1875 193.75 C129.01034101 189.74879308 131.88829483 185.81185483 134.86328125 181.921875 C135.8828894 180.58431152 135.8828894 180.58431152 136.9230957 179.21972656 C138.30070384 177.41573519 139.68331315 175.61555129 141.07104492 173.81933594 C141.7076001 172.98176758 142.34415527 172.14419922 143 171.28125 C143.5775 170.52908203 144.155 169.77691406 144.75 169.00195312 C146.26481348 166.96924329 146.26481348 166.96924329 146 164 C147.32 164 148.64 164 150 164 C150.53625 163.34 151.0725 162.68 151.625 162 C154.89408352 159.24708756 157.35149881 159.38589392 161.52734375 159.52734375 C165.43699479 160.27468621 167.18777859 162.25636935 170 165 C170.99 165 171.98 165 173 165 C173.12944997 162.16461093 173.12944997 162.16461093 172 159 C169.15540878 156.5805345 165.83472835 154 162 154 C162.04640625 153.26136719 162.0928125 152.52273437 162.140625 151.76171875 C162.45656964 142.88141748 160.97824662 135.46736993 156 128 C172.84758347 133.89665421 185.66121652 140.82854418 194 157 C197.71060276 165.02388304 199.10895566 172.17625417 199.31640625 181.0234375 C199.3475779 182.14270126 199.3475779 182.14270126 199.37937927 183.28457642 C199.4443123 185.64796508 199.50349571 188.01145664 199.5625 190.375 C199.60573884 191.98568735 199.64935477 193.59636463 199.69335938 195.20703125 C199.79993526 199.13791771 199.90135792 203.06890677 200 207 C215.37910581 199.80680764 226.22266912 177.06741137 232 162 C234.04103271 156.09293733 235.61759713 150.09144368 237 144 C237.36931641 142.39125 237.36931641 142.39125 237.74609375 140.75 C243.38274301 110.89519562 235.89794525 79.91457669 219 55 C216.48018413 51.5243919 213.80814635 48.24521193 211 45 C210.33742187 44.19304688 209.67484375 43.38609375 208.9921875 42.5546875 C192.34434525 22.95814994 168.82089734 11.34744767 144 6 C142.87005615 5.73183472 142.87005615 5.73183472 141.71728516 5.45825195 C135.07140059 3.96774138 128.67372484 3.65084637 121.875 3.6875 C120.77478516 3.69313965 119.67457031 3.6987793 118.54101562 3.70458984 C92.20588413 4.09459692 67.18226335 14.17212945 47 31 Z " fill="#F9FBFB" transform="translate(0,0)"/>
<path d="M0 0 C1.03533559 1.64494924 2.03829137 3.3109487 3 5 C4.82992774 6.242883 4.82992774 6.242883 6.875 7 C13.15887264 9.87723106 16.23991798 14.35987697 20 20 C21.64023987 21.69268093 23.31228325 23.35465271 25 25 C27.27529695 27.22465876 29.54475379 29.45514782 31.8125 31.6875 C32.40998047 32.26822266 33.00746094 32.84894531 33.62304688 33.44726562 C35.12014673 34.92725576 36.56488731 36.45982782 38 38 C38 38.66 38 39.32 38 40 C39.485 40.495 39.485 40.495 41 41 C41 41.66 41 42.32 41 43 C41.53302734 43.20705566 42.06605469 43.41411133 42.61523438 43.62744141 C45.96489426 45.55534762 48.46993834 48.22487753 51.15625 50.9609375 C51.74039673 51.54791412 52.32454346 52.13489075 52.9263916 52.73965454 C54.78901998 54.61344924 56.64457952 56.4940705 58.5 58.375 C59.7482346 59.63327229 60.99692773 60.89108988 62.24609375 62.1484375 C65.04341058 64.96560704 67.83876044 67.78464792 70.62182617 70.61590576 C71.85452246 71.85389751 73.11779687 73.06126619 74.38476562 74.26416016 C76 76 76 76 76 78 C76.58136719 78.26554687 77.16273438 78.53109375 77.76171875 78.8046875 C84.0809108 82.17933457 88.94754408 87.84869344 93.45703125 93.30078125 C95.08567983 95.23268554 95.08567983 95.23268554 98 97 C102.19065738 115.61350318 90.20399276 139.78100302 80.80859375 155.265625 C77.82990326 159.76904475 74.51991995 163.91068123 71 168 C69.7934375 169.40765625 69.7934375 169.40765625 68.5625 170.84375 C63.99931869 176.05045688 63.99931869 176.05045688 62 178 C61.34 178 60.68 178 60 178 C59.98541748 177.03288086 59.97083496 176.06576172 59.95581055 175.06933594 C59.89710148 171.42348303 59.8198859 167.77820188 59.73754883 164.1328125 C59.70463621 162.56585078 59.67650384 160.99878007 59.65356445 159.43164062 C59.38375412 141.47490187 56.32069355 126.77212814 43.5390625 113.28515625 C35.65062842 106.18556558 25.89182015 102.46213705 16 99 C16.34933594 99.67546875 16.69867188 100.3509375 17.05859375 101.046875 C17.51363281 101.93890625 17.96867187 102.8309375 18.4375 103.75 C18.88996094 104.63171875 19.34242188 105.5134375 19.80859375 106.421875 C21.85487212 110.8498872 22.11554041 114.37028244 22.0625 119.25 C22.05347656 120.32765625 22.04445313 121.4053125 22.03515625 122.515625 C22.02355469 123.33546875 22.01195312 124.1553125 22 125 C23.3303125 125.3403125 23.3303125 125.3403125 24.6875 125.6875 C28.50512329 127.20014319 30.42667555 128.82118744 33 132 C33 133.32 33 134.64 33 136 C30.10093498 135.57050889 29.02627098 135.0254983 26.875 132.9375 C22.72672047 130.14192032 18.87182388 130.13977982 14 131 C11.62280307 132.87501931 11.62280307 132.87501931 10 135 C8.68 135 7.36 135 6 135 C5.89437744 135.57419678 5.78875488 136.14839355 5.67993164 136.73999023 C4.89331975 139.35459213 3.7606196 140.98068021 2.12109375 143.16015625 C1.2386499 144.34387817 1.2386499 144.34387817 0.33837891 145.55151367 C-0.28891113 146.38013916 -0.91620117 147.20876465 -1.5625 148.0625 C-2.8374799 149.76804954 -4.11222052 151.47377799 -5.38671875 153.1796875 C-6.31556885 154.4167041 -6.31556885 154.4167041 -7.26318359 155.67871094 C-9.49522631 158.66187964 -11.68900841 161.67043773 -13.875 164.6875 C-14.49117187 165.53699219 -15.10734375 166.38648438 -15.7421875 167.26171875 C-16.36480469 168.12216797 -16.36480469 168.12216797 -17 169 C-21.19454326 167.45974047 -23.34032143 164.38551122 -25.9375 160.9375 C-26.40478516 160.32986816 -26.87207031 159.72223633 -27.35351562 159.09619141 C-28.36659732 157.77658927 -29.37605755 156.45420082 -30.38232422 155.12939453 C-32.08221 152.89178455 -33.79210257 150.66209719 -35.50390625 148.43359375 C-50.10983532 129.40040036 -50.10983532 129.40040036 -49.75 124.8125 C-49.5025 123.884375 -49.255 122.95625 -49 122 C-48.01 121.505 -48.01 121.505 -47 121 C-46.67 120.01 -46.34 119.02 -46 118 C-47.32 118 -48.64 118 -50 118 C-50.35682099 111.57722212 -49.65795225 105.92283848 -47 100 C-44.4375 97.375 -44.4375 97.375 -42 96 C-41.34 96 -40.68 96 -40 96 C-39.85304688 97.34578125 -39.85304688 97.34578125 -39.703125 98.71875 C-37.83794977 114.28331574 -33.80261018 128.45479049 -28 143 C-27.12481666 139.00430436 -26.27870489 135.002975 -25.4375 131 C-25.19064453 129.87464844 -24.94378906 128.74929687 -24.68945312 127.58984375 C-23.18759239 120.54020495 -23.18759239 120.54020495 -23.5 113.40625 C-24 110 -24 110 -23.00390625 107.90625 C-21.66927083 106.60416667 -20.33463542 105.30208333 -19 104 C-15.83884224 105.36983503 -15.0072908 105.9890638 -13 109 C-13.2784375 110.918125 -13.2784375 110.918125 -13.5625 112.875 C-14.87286648 122.35588689 -10.72747392 132.02598379 -8 141 C0.2939837 118.0487331 0.2939837 118.0487331 2 94 C1.67 93.67 1.34 93.34 1 93 C0.73046875 90.63671875 0.73046875 90.63671875 1 88 C2.42578125 86.39453125 2.42578125 86.39453125 4.3125 84.8125 C8.92143071 80.00882574 9.30495085 74.6225257 10.0246582 68.2590332 C10.11448975 67.49679443 10.20432129 66.73455566 10.296875 65.94921875 C10.36229492 65.26174561 10.42771484 64.57427246 10.49511719 63.8659668 C11.12857073 61.52482297 12.27949842 60.66807404 14 59 C15.77914899 53.4752742 16.20643726 48.78024341 16 43 C14.68 46.96 13.36 50.92 12 55 C11.34 55 10.68 55 10 55 C9.96559814 54.1529248 9.93119629 53.30584961 9.89575195 52.43310547 C9.75595096 49.26731746 9.59506394 46.10348129 9.42016602 42.93945312 C9.34897033 41.57430403 9.28600482 40.20869829 9.23168945 38.84277344 C9.17312012 29.99043015 9.17312012 29.99043015 5.765625 22.09765625 C2.6322681 19.7210847 1.31426018 19.30908174 -2.5625 19.5625 C-3.95662109 19.62630859 -3.95662109 19.62630859 -5.37890625 19.69140625 C-7.92147072 19.93213353 -7.92147072 19.93213353 -10.03515625 20.51953125 C-15.9020173 21.95417123 -22.1406919 20.97655135 -28 20 C-35.01261636 19.2443498 -35.01261636 19.2443498 -41.0625 22.375 C-43.92522365 26.25352882 -44.21112788 28.52469263 -44.53515625 33.3203125 C-44.66567383 35.20556641 -44.66567383 35.20556641 -44.79882812 37.12890625 C-44.8868106 38.46093144 -44.97470002 39.79296277 -45.0625 41.125 C-45.15390628 42.46487045 -45.2456984 43.80471464 -45.33789062 45.14453125 C-45.56239934 48.42944827 -45.78293128 51.71458431 -46 55 C-46.99 54.67 -47.98 54.34 -49 54 C-52.91019688 42.72943252 -54.92274119 26.81914752 -52.0625 15.1875 C-49.23597998 10.81924178 -45.59001577 8.37775011 -41 6 C-40.34 6 -39.68 6 -39 6 C-38.773125 5.4225 -38.54625 4.845 -38.3125 4.25 C-36.00198718 0.28912088 -32.23333823 -2.3323213 -28 -4 C-18.04579676 -6.37004839 -8.82323363 -5.43897964 0 0 Z " fill="#50808D" transform="translate(140,29)"/>
<path d="M0 0 C13.68317843 2.21194238 25.27686829 10.04190582 34.14453125 20.4140625 C42.74595489 32.40173082 44.48705249 45.83572267 45.18237305 60.13818359 C45.2692042 61.71417717 45.37930165 63.28905877 45.51245117 64.86181641 C46.60794697 77.93427934 46.60794697 77.93427934 42.67431641 82.98779297 C39.88494496 85.28412894 37.107711 87.16577287 34 89 C32.57588003 90.03145345 31.15748766 91.07096377 29.75 92.125 C18.34367971 99.42585394 6.00117675 103.5786377 -7 107 C-8.20849609 107.35384766 -8.20849609 107.35384766 -9.44140625 107.71484375 C-17.489176 109.87246499 -25.62357588 109.5346431 -34 110 C-34 97.13 -34 84.26 -34 71 C-34.66 71 -35.32 71 -36 71 C-35.505 70.01 -35.505 70.01 -35 69 C-34.34 69.33 -33.68 69.66 -33 70 C-32.75121094 69.27554688 -32.50242187 68.55109375 -32.24609375 67.8046875 C-30.87828585 64.72604777 -29.25849953 62.6744244 -27.0625 60.125 C-23.21053517 55.52769563 -19.55537524 50.83045068 -16 46 C-15.27889038 45.02957764 -15.27889038 45.02957764 -14.54321289 44.03955078 C-12.59599704 41.37944283 -11.0492239 39.14767169 -10 36 C-8.68 36 -7.36 36 -6 36 C-5.71125 35.360625 -5.4225 34.72125 -5.125 34.0625 C-4 32 -4 32 -2 31 C2.05258545 30.48978241 6.24782312 29.99512838 9.88671875 32.08203125 C11.31242262 33.32817544 12.66106257 34.66106257 14 36 C14.99 36.33 15.98 36.66 17 37 C15.86462939 33.3071166 15.86462939 33.3071166 14 30 C12.07421172 29.1623436 12.07421172 29.1623436 9.9375 28.5625 C7.79296875 27.67578125 7.79296875 27.67578125 6 26 C5.21393972 22.64341082 4.8424287 19.50434923 4.59008789 16.07983398 C4.16214999 10.3850683 2.90463523 6.84105871 0 2 C0 1.34 0 0.68 0 0 Z " fill="#E1E5E8" transform="translate(156,128)"/>
<path d="M0 0 C4.85737422 0.20174398 9.28579129 0.21481532 14 -1 C18.49264079 -1.59720905 22.97631902 -2.18048057 27.015625 0.17578125 C31.82755143 5.06946371 31.97736757 10.43659385 32 17 C32.00692871 17.74475586 32.01385742 18.48951172 32.02099609 19.25683594 C32.06798974 24.50550389 32.05196603 29.75143116 32 35 C32.66 35 33.32 35 34 35 C34.99 30.71 35.98 26.42 37 22 C37.66 22.33 38.32 22.66 39 23 C39.35044272 29.30796903 38.74090218 35.21365095 36 41 C34.515 41.495 34.515 41.495 33 42 C32.92652344 43.28583984 32.92652344 43.28583984 32.8515625 44.59765625 C31.80166539 60.65384139 31.80166539 60.65384139 25.26953125 66.58203125 C23.73232414 68.03999311 23.73232414 68.03999311 23.5625 70.8125 C23.78332024 72.9682203 23.78332024 72.9682203 25 74 C27.26411719 88.61972815 20.65461535 107.5876492 15 121 C14.01 121.495 14.01 121.495 13 122 C10.0703125 110.28125 10.0703125 110.28125 9.53930664 108.14941406 C9.17357895 106.6918013 8.80280712 105.23544661 8.42749023 103.78027344 C6.24458239 95.26625282 6.24458239 95.26625282 7.6875 90.9375 C8.2469602 88.836315 8.2469602 88.836315 6.5625 86.75 C5.7890625 85.88375 5.7890625 85.88375 5 85 C2.66971908 85.93211237 1.24108468 86.69003398 -0.3125 88.6875 C-1.22119668 91.0703891 -1.22119668 91.0703891 -0.3984375 93.83984375 C0.50779815 99.60686613 -1.12650162 105.24391826 -2.3125 110.875 C-2.53873047 112.02742188 -2.76496094 113.17984375 -2.99804688 114.3671875 C-4.28652607 120.6647688 -4.28652607 120.6647688 -5 123 C-5.99 123.495 -5.99 123.495 -7 124 C-19.41414801 88.11829733 -19.41414801 88.11829733 -18 74 C-17.505 73.505 -17.505 73.505 -17 73 C-16.49830585 70.16926564 -16.49830585 70.16926564 -17 67 C-19.33333333 64.33333333 -19.33333333 64.33333333 -22 62 C-24.4470183 58.38045209 -24.43294056 54.48331006 -24.625 50.25 C-24.66367188 49.55261719 -24.70234375 48.85523438 -24.7421875 48.13671875 C-24.83598624 46.42489182 -24.91906174 44.71248318 -25 43 C-25.99 42.67 -26.98 42.34 -28 42 C-31.26592941 36.2218172 -31.65651592 30.54988608 -32 24 C-31.01 23.34 -30.02 22.68 -29 22 C-28.80664062 22.85464844 -28.61328125 23.70929688 -28.4140625 24.58984375 C-28.15367188 25.69457031 -27.89328125 26.79929687 -27.625 27.9375 C-27.36976562 29.03964844 -27.11453125 30.14179687 -26.8515625 31.27734375 C-26.57054688 32.17582031 -26.28953125 33.07429688 -26 34 C-25.34 34.33 -24.68 34.66 -24 35 C-24.01160156 34.06800781 -24.02320312 33.13601562 -24.03515625 32.17578125 C-24.21564114 6.67584477 -24.21564114 6.67584477 -19 1 C-13.36026586 -2.75982276 -6.41118968 -1.06853161 0 0 Z " fill="#E4B0A1" transform="translate(118,49)"/>
<path d="M0 0 C1.46053194 0.323564 2.91980325 0.65322971 4.375 1 C5.53433806 4.47801418 5.45600867 7.0975746 5.39672852 10.76635742 C5.38712097 11.44954544 5.37751343 12.13273346 5.36761475 12.83662415 C5.33465457 15.0930115 5.29431105 17.34920344 5.25390625 19.60546875 C5.22960221 21.17059136 5.20575879 22.73572118 5.18235779 24.30085754 C5.11954509 28.41910016 5.05047048 32.53721494 4.98010254 36.65533447 C4.90939368 40.85805442 4.84459199 45.06086495 4.77929688 49.26367188 C4.6503208 57.5092149 4.51473097 65.75463225 4.375 74 C-0.70572923 74.10502799 -3.98187927 73.76203493 -8.5625 71.5 C-9.99916016 70.80390625 -9.99916016 70.80390625 -11.46484375 70.09375 C-12.17769531 69.7328125 -12.89054687 69.371875 -13.625 69 C-13.625 71.31 -13.625 73.62 -13.625 76 C-7.5644075 79.36561591 -2.58550253 81.61330541 4.375 82 C3.36588542 83.7578125 2.35677083 85.515625 1.34765625 87.2734375 C-0.46059987 90.29622811 -0.46059987 90.29622811 -0.04296875 93.8203125 C0.88695525 99.59752153 -0.74890777 105.23160275 -1.9375 110.875 C-2.16373047 112.02742188 -2.38996094 113.17984375 -2.62304688 114.3671875 C-3.91152607 120.6647688 -3.91152607 120.6647688 -4.625 123 C-5.615 123.495 -5.615 123.495 -6.625 124 C-19.03914801 88.11829733 -19.03914801 88.11829733 -17.625 74 C-17.13 73.505 -17.13 73.505 -16.625 73 C-16.12330585 70.16926564 -16.12330585 70.16926564 -16.625 67 C-18.95833333 64.33333333 -18.95833333 64.33333333 -21.625 62 C-24.0720183 58.38045209 -24.05794056 54.48331006 -24.25 50.25 C-24.28867188 49.55261719 -24.32734375 48.85523438 -24.3671875 48.13671875 C-24.46098624 46.42489182 -24.54406174 44.71248318 -24.625 43 C-25.615 42.67 -26.605 42.34 -27.625 42 C-30.89092941 36.2218172 -31.28151592 30.54988608 -31.625 24 C-30.635 23.34 -29.645 22.68 -28.625 22 C-28.43164062 22.85464844 -28.23828125 23.70929688 -28.0390625 24.58984375 C-27.77867188 25.69457031 -27.51828125 26.79929687 -27.25 27.9375 C-26.99476562 29.03964844 -26.73953125 30.14179687 -26.4765625 31.27734375 C-26.19554688 32.17582031 -25.91453125 33.07429688 -25.625 34 C-24.965 34.33 -24.305 34.66 -23.625 35 C-23.63660156 34.06800781 -23.64820312 33.13601562 -23.66015625 32.17578125 C-23.84064114 6.67584477 -23.84064114 6.67584477 -18.625 1 C-13.07194515 -2.70203656 -6.30885633 -1.25638675 0 0 Z " fill="#F1C2B1" transform="translate(117.625,49)"/>
<path d="M0 0 C1.32 0 2.64 0 4 0 C4.495 0.99 4.495 0.99 5 2 C5.99 2.33 6.98 2.66 8 3 C12.68941212 8.87926296 14.95991962 14.53168988 15 22 C15.01417969 22.77214844 15.02835937 23.54429687 15.04296875 24.33984375 C15.05954784 26.22654402 15.0342993 28.11353867 15 30 C14.45730469 30.18175781 13.91460937 30.36351562 13.35546875 30.55078125 C12.64003906 30.80214844 11.92460937 31.05351562 11.1875 31.3125 C10.12595703 31.67794922 10.12595703 31.67794922 9.04296875 32.05078125 C6.67736978 33.14990276 5.51755481 33.86266304 4 36 C3.93039063 37.00417969 3.86078125 38.00835937 3.7890625 39.04296875 C3.17401866 44.81620045 -1.11154742 48.95043276 -4.625 53.3125 C-6.03579581 55.09872858 -7.44466066 56.88648402 -8.8515625 58.67578125 C-9.54024414 59.54799316 -10.22892578 60.42020508 -10.93847656 61.31884766 C-14.10881892 65.44209491 -17.0680962 69.70516027 -20 74 C-24.11255333 72.15035301 -26.27124208 69.47722089 -28.9375 65.9375 C-29.40478516 65.32986816 -29.87207031 64.72223633 -30.35351562 64.09619141 C-31.36659732 62.77658927 -32.37605755 61.45420082 -33.38232422 60.12939453 C-35.08221 57.89178455 -36.79210257 55.66209719 -38.50390625 53.43359375 C-53.10983532 34.40040036 -53.10983532 34.40040036 -52.75 29.8125 C-52.5025 28.884375 -52.255 27.95625 -52 27 C-51.34 26.67 -50.68 26.34 -50 26 C-49.67 25.01 -49.34 24.02 -49 23 C-50.32 23 -51.64 23 -53 23 C-53.35682099 16.57722212 -52.65795225 10.92283848 -50 5 C-47.4375 2.375 -47.4375 2.375 -45 1 C-44.34 1 -43.68 1 -43 1 C-42.85304688 2.34578125 -42.85304688 2.34578125 -42.703125 3.71875 C-40.83794977 19.28331574 -36.80261018 33.45479049 -31 48 C-30.12481666 44.00430436 -29.27870489 40.002975 -28.4375 36 C-28.19064453 34.87464844 -27.94378906 33.74929687 -27.68945312 32.58984375 C-26.18759239 25.54020495 -26.18759239 25.54020495 -26.5 18.40625 C-27 15 -27 15 -26.00390625 12.90625 C-24.00195312 10.953125 -24.00195312 10.953125 -22 9 C-18.83884224 10.36983503 -18.0072908 10.9890638 -16 14 C-16.2784375 15.918125 -16.2784375 15.918125 -16.5625 17.875 C-17.87286648 27.35588689 -13.72747392 37.02598379 -11 46 C-3.52815742 23.4412958 -3.52815742 23.4412958 0 0 Z " fill="#4C555B" transform="translate(143,124)"/>
<path d="M0 0 C1.03533559 1.64494924 2.03829137 3.3109487 3 5 C4.82992774 6.242883 4.82992774 6.242883 6.875 7 C11.28163724 8.99637709 14.78566808 11.57133616 17 16 C17.86555196 29.1996674 16.47622151 42.50550344 12 55 C11.34 55 10.68 55 10 55 C9.96559814 54.1529248 9.93119629 53.30584961 9.89575195 52.43310547 C9.75595096 49.26731746 9.59506394 46.10348129 9.42016602 42.93945312 C9.34897033 41.57430403 9.28600482 40.20869829 9.23168945 38.84277344 C9.17312012 29.99043015 9.17312012 29.99043015 5.765625 22.09765625 C2.6322681 19.7210847 1.31426018 19.30908174 -2.5625 19.5625 C-3.95662109 19.62630859 -3.95662109 19.62630859 -5.37890625 19.69140625 C-7.92147072 19.93213353 -7.92147072 19.93213353 -10.03515625 20.51953125 C-15.9020173 21.95417123 -22.1406919 20.97655135 -28 20 C-35.01261636 19.2443498 -35.01261636 19.2443498 -41.0625 22.375 C-43.92522365 26.25352882 -44.21112788 28.52469263 -44.53515625 33.3203125 C-44.66567383 35.20556641 -44.66567383 35.20556641 -44.79882812 37.12890625 C-44.8868106 38.46093144 -44.97470002 39.79296277 -45.0625 41.125 C-45.15390628 42.46487045 -45.2456984 43.80471464 -45.33789062 45.14453125 C-45.56239934 48.42944827 -45.78293128 51.71458431 -46 55 C-46.99 54.67 -47.98 54.34 -49 54 C-52.91019688 42.72943252 -54.92274119 26.81914752 -52.0625 15.1875 C-49.23597998 10.81924178 -45.59001577 8.37775011 -41 6 C-40.34 6 -39.68 6 -39 6 C-38.773125 5.4225 -38.54625 4.845 -38.3125 4.25 C-36.00198718 0.28912088 -32.23333823 -2.3323213 -28 -4 C-18.04579676 -6.37004839 -8.82323363 -5.43897964 0 0 Z " fill="#69564F" transform="translate(140,29)"/>
<path d="M0 0 C6.87799051 -0.22702414 12.0865829 0.15316656 18 4 C19.03013277 5.64821244 20.03114628 7.31503702 21 9 C22.94553135 10.1338196 24.94570898 11.0320339 26.99609375 11.9609375 C30.52281575 13.78960817 33.22666584 16.45333167 35 20 C35.86555196 33.1996674 34.47622151 46.50550344 30 59 C29.34 59 28.68 59 28 59 C27.96559814 58.1529248 27.93119629 57.30584961 27.89575195 56.43310547 C27.75595096 53.26731746 27.59506394 50.10348129 27.42016602 46.93945312 C27.34897033 45.57430403 27.28600482 44.20869829 27.23168945 42.84277344 C27.14942056 34.07385653 27.14942056 34.07385653 24.05859375 26.08984375 C19.61989329 23.05701521 15.98772729 23.37130197 10.75 23.6875 C8.93241918 23.75730932 7.11471073 23.82389649 5.296875 23.88671875 C4.49604492 23.93014404 3.69521484 23.97356934 2.87011719 24.01831055 C1 24 1 24 0 23 C-0.08713831 21.29227642 -0.10700007 19.58101351 -0.09765625 17.87109375 C-0.09443359 16.83662109 -0.09121094 15.80214844 -0.08789062 14.73632812 C-0.07951172 13.64771484 -0.07113281 12.55910156 -0.0625 11.4375 C-0.05798828 10.34501953 -0.05347656 9.25253906 -0.04882812 8.12695312 C-0.03699826 5.41791505 -0.02051543 2.70898401 0 0 Z " fill="#564741" transform="translate(122,25)"/>
<path d="M0 0 C4.46382139 2.18330963 7.16722886 5.10173043 9.16015625 9.64453125 C11.33320423 17.19460957 11.80040247 25.19347721 11 33 C9 36 9 36 5.875 36.6875 C4.451875 36.8421875 4.451875 36.8421875 3 37 C2.67 34.03 2.34 31.06 2 28 C-9.385 27.505 -9.385 27.505 -21 27 C-21 21.05087057 -20.69441536 18.20457223 -18.75 12.875 C-18.33234375 11.69679687 -17.9146875 10.51859375 -17.484375 9.3046875 C-13.66957133 0.81172986 -9.04733581 -1.53210358 0 0 Z " fill="#E1E5E9" transform="translate(164,159)"/>
<path d="M0 0 C1.32 0 2.64 0 4 0 C4.33 0.66 4.66 1.32 5 2 C5.99 2.33 6.98 2.66 8 3 C12.68941212 8.87926296 14.95991962 14.53168988 15 22 C15.01417969 22.77214844 15.02835938 23.54429687 15.04296875 24.33984375 C15.05954784 26.22654402 15.0342993 28.11353867 15 30 C14.45730469 30.18175781 13.91460937 30.36351562 13.35546875 30.55078125 C12.64003906 30.80214844 11.92460937 31.05351562 11.1875 31.3125 C10.12595703 31.67794922 10.12595703 31.67794922 9.04296875 32.05078125 C6.67736978 33.14990276 5.51755481 33.86266304 4 36 C3.93296875 37.0003125 3.8659375 38.000625 3.796875 39.03125 C3.17791663 44.86539224 -1.20691797 49.08986092 -4.75 53.5 C-6.18308836 55.32229041 -7.61539697 57.14519434 -9.046875 58.96875 C-9.72556641 59.82597656 -10.40425781 60.68320313 -11.10351562 61.56640625 C-13.50337726 64.64594033 -15.76607841 67.79863206 -18 71 C-18.99218603 67.8932305 -19.13420832 67.28832886 -17.68359375 64.171875 C-17.12800781 63.12515625 -16.57242188 62.0784375 -16 61 C-15.30359108 58.7651364 -14.65911406 56.51354862 -14.0625 54.25 C-12.96298603 50.08041455 -11.7035787 46.17029535 -10.06640625 42.1796875 C-8.01685768 37.15689037 -6.36679835 32.08842713 -4.875 26.875 C-4.61638184 25.97499268 -4.35776367 25.07498535 -4.09130859 24.14770508 C-1.88033072 16.14900105 -0.67816233 8.2665649 0 0 Z " fill="#CA192B" transform="translate(143,124)"/>
<path d="M0 0 C0.66 0 1.32 0 2 0 C2.66 1.98 3.32 3.96 4 6 C4.33 5.67 4.66 5.34 5 5 C4.67 3.35 4.34 1.7 4 0 C11.26 0 18.52 0 26 0 C26.10784952 3.75076665 26.18724988 7.49843949 26.25 11.25 C26.30027344 12.84521484 26.30027344 12.84521484 26.3515625 14.47265625 C26.36445313 15.49746094 26.37734375 16.52226562 26.390625 17.578125 C26.41157227 18.52075195 26.43251953 19.46337891 26.45410156 20.43457031 C25.85617652 23.81252535 24.71740815 24.95922029 22 27 C19.84936523 27.50170898 19.84936523 27.50170898 17.55859375 27.49609375 C16.31239258 27.49706055 16.31239258 27.49706055 15.04101562 27.49804688 C14.18185547 27.47806641 13.32269531 27.45808594 12.4375 27.4375 C11.57447266 27.44458984 10.71144531 27.45167969 9.82226562 27.45898438 C3.58729255 27.39600485 3.58729255 27.39600485 1.24902344 25.81933594 C-0.48867733 23.28818931 -0.34141337 21.50904242 -0.29296875 18.45703125 C-0.28330078 17.38388672 -0.27363281 16.31074219 -0.26367188 15.20507812 C-0.23853516 14.08552734 -0.21339844 12.96597656 -0.1875 11.8125 C-0.16719727 10.11577148 -0.16719727 10.11577148 -0.14648438 8.38476562 C-0.11109958 5.58936683 -0.06172948 2.79492108 0 0 Z " fill="#B62C3D" transform="translate(139,188)"/>
<path d="M0 0 C0.14695312 1.34578125 0.14695312 1.34578125 0.296875 2.71875 C2.01435321 17.05080953 5.43387897 30.24567595 10.73046875 43.671875 C12 47 12 47 12.515625 49.078125 C13.48507315 52.92464506 15.34387241 56.5045267 16.94140625 60.125 C18 63 18 63 18 67 C14.9679677 65.68100539 13.27195921 64.43372714 11.3359375 61.76171875 C10.85817871 61.11235352 10.38041992 60.46298828 9.88818359 59.79394531 C9.38883301 59.09881836 8.88948242 58.40369141 8.375 57.6875 C7.31336949 56.23764418 6.25085519 54.78843512 5.1875 53.33984375 C4.65640625 52.61265137 4.1253125 51.88545898 3.578125 51.13623047 C0.45947321 46.91466438 -2.80032694 42.80152488 -6.0390625 38.671875 C-10.09033806 33.15181029 -10.09033806 33.15181029 -9.75 28.8125 C-9.5025 27.884375 -9.255 26.95625 -9 26 C-8.34 25.67 -7.68 25.34 -7 25 C-6.67 24.01 -6.34 23.02 -6 22 C-7.32 22 -8.64 22 -10 22 C-10.35682099 15.57722212 -9.65795225 9.92283848 -7 4 C-3.0952381 0 -3.0952381 0 0 0 Z " fill="#DE2338" transform="translate(100,125)"/>
<path d="M0 0 C2.12265493 1.04672204 4.21928826 2.11971349 6.296875 3.25390625 C11.66189331 6.11581888 15.92015076 7.6622306 22 8 C20.99088542 9.7578125 19.98177083 11.515625 18.97265625 13.2734375 C17.16440013 16.29622811 17.16440013 16.29622811 17.58203125 19.8203125 C18.51195525 25.59752153 16.87609223 31.23160275 15.6875 36.875 C15.46126953 38.02742188 15.23503906 39.17984375 15.00195312 40.3671875 C13.71347393 46.6647688 13.71347393 46.6647688 13 49 C12.01 49.495 12.01 49.495 11 50 C-0.95255088 15.45249206 -0.95255088 15.45249206 0 0 Z " fill="#DCE4E5" transform="translate(100,123)"/>
<path d="M0 0 C1.59506331 15.1353785 -4.14359786 33.10902509 -10 47 C-10.99 47.495 -10.99 47.495 -12 48 C-14.9296875 36.28125 -14.9296875 36.28125 -15.46069336 34.14941406 C-15.82642105 32.6918013 -16.19719288 31.23544661 -16.57250977 29.78027344 C-18.75541761 21.26625282 -18.75541761 21.26625282 -17.3125 16.9375 C-17.209375 16.298125 -17.10625 15.65875 -17 15 C-17.98028616 13.65210653 -18.97971135 12.31787285 -20 11 C-19.67 10.01 -19.34 9.02 -19 8 C-16.453125 6.97265625 -16.453125 6.97265625 -13.25 6.0625 C-8.94328505 4.73775039 -3.91862524 0 0 0 Z " fill="#B8BEC0" transform="translate(143,123)"/>
<path d="M0 0 C-0.125 2.25 -0.125 2.25 -1 5 C-2.423125 5.8353125 -2.423125 5.8353125 -3.875 6.6875 C-8.88194663 10.39264051 -9.42547358 15.49651538 -10.3984375 21.4296875 C-10.64224049 23.2812724 -10.82781366 25.14038757 -11 27 C-9.68 27 -8.36 27 -7 27 C-7.33 28.32 -7.66 29.64 -8 31 C-8.66 31 -9.32 31 -10 31 C-10.16681109 33.91652174 -10.16681109 33.91652174 -10 37 C-9.34 37.66 -8.68 38.32 -8 39 C-8.99 39.495 -8.99 39.495 -10 40 C-9.67 43.96 -9.34 47.92 -9 52 C-7.35 52.33 -5.7 52.66 -4 53 C-2 55 -2 55 -1.5625 58.875 C-1.65402992 62.22499505 -1.87216034 62.84584041 -4.125 65.5625 C-7.68392876 67.34196438 -9.25019194 67.2227635 -13 66 C-14.875 64.9375 -14.875 64.9375 -16 63 C-16.24176638 60.28147142 -16.13477738 57.74047347 -16 55 C-14.68 54.34 -13.36 53.68 -12 53 C-12.433125 51.68902344 -12.433125 51.68902344 -12.875 50.3515625 C-16.92305666 36.9423748 -18.58995274 23.53962114 -12.484375 10.48046875 C-9.53564907 5.55299252 -6.18700031 0 0 0 Z " fill="#78606A" transform="translate(101,120)"/>
<path d="M0 0 C0.99 0.33 1.98 0.66 3 1 C2.65066406 1.92941406 2.30132812 2.85882813 1.94140625 3.81640625 C1.48636719 5.05261719 1.03132813 6.28882813 0.5625 7.5625 C0.11003906 8.78066406 -0.34242188 9.99882812 -0.80859375 11.25390625 C-1.97885142 14.93350333 -2.57261353 18.18299666 -3 22 C-2.30849854 21.99476318 -1.61699707 21.98952637 -0.90454102 21.98413086 C2.20946352 21.963425 5.32345361 21.95036037 8.4375 21.9375 C9.52611328 21.92912109 10.61472656 21.92074219 11.73632812 21.91210938 C12.77080078 21.90888672 13.80527344 21.90566406 14.87109375 21.90234375 C15.82943115 21.89710693 16.78776855 21.89187012 17.77514648 21.88647461 C20 22 20 22 21 23 C21.45459858 25.65463121 21.70243238 28.32189138 22 31 C24.47266765 30.65555119 24.47266765 30.65555119 27 30 C31.10687047 21.78625906 27.3228464 9.32353292 25 1 C25.99 1.33 26.98 1.66 28 2 C31.45432329 10.11694897 33.3514979 22.0390012 30.05078125 30.40625 C28.18066319 33.28516991 26.68405467 34.82923599 23.32421875 35.66796875 C22.55722656 35.77753906 21.79023438 35.88710937 21 36 C20.96132812 37.33804688 20.96132812 37.33804688 20.921875 38.703125 C20.83679688 40.45882812 20.83679688 40.45882812 20.75 42.25 C20.70359375 43.41015625 20.6571875 44.5703125 20.609375 45.765625 C20 49 20 49 18.58203125 51.39453125 C14.53028567 53.91384658 10.60845803 53.54041379 5.9375 53.4375 C5.02677734 53.44458984 4.11605469 53.45167969 3.17773438 53.45898438 C-3.53924431 53.39463602 -3.53924431 53.39463602 -5.78295898 51.47290039 C-6.18458252 50.98684326 -6.58620605 50.50078613 -7 50 C-6.67 49.34 -6.34 48.68 -6 48 C-5.34 48.66 -4.68 49.32 -4 50 C-0.87453844 50.44626783 2.2837984 50.32410302 5.4375 50.3125 C6.74557617 50.33666992 6.74557617 50.33666992 8.08007812 50.36132812 C8.91861328 50.36197266 9.75714844 50.36261719 10.62109375 50.36328125 C11.3886499 50.36626221 12.15620605 50.36924316 12.94702148 50.37231445 C15.61518991 49.88843327 16.45549229 49.22176565 18 47 C18.5040817 44.49126841 18.5040817 44.49126841 18.51171875 41.67578125 C18.54716797 40.64775391 18.58261719 39.61972656 18.61914062 38.56054688 C18.64169922 37.48869141 18.66425781 36.41683594 18.6875 35.3125 C18.72166016 34.22904297 18.75582031 33.14558594 18.79101562 32.02929688 C18.8735375 29.35323023 18.93844386 26.67663097 19 24 C11.74 24 4.48 24 -3 24 C-1.59624169 27.54321888 -1.59624169 27.54321888 0 31 C-1.32 30.67 -2.64 30.34 -4 30 C-4.33 28.02 -4.66 26.04 -5 24 C-5.66 24 -6.32 24 -7 24 C-7 31.26 -7 38.52 -7 46 C-7.33 46 -7.66 46 -8 46 C-8.33 38.74 -8.66 31.48 -9 24 C-12.05270463 23.84188612 -12.05270463 23.84188612 -15 25 C-15 25.66 -15 26.32 -15 27 C-16.32 27.33 -17.64 27.66 -19 28 C-14.70945369 21.22545319 -9.93666258 14.84988126 -5.05175781 8.49804688 C-4.54354492 7.83095703 -4.03533203 7.16386719 -3.51171875 6.4765625 C-2.82275513 5.5805835 -2.82275513 5.5805835 -2.11987305 4.66650391 C-0.81185883 2.88001323 -0.81185883 2.88001323 0 0 Z " fill="#F9C7CF" transform="translate(146,164)"/>
<path d="M0 0 C2.91235189 -0.11649408 4.38428514 -0.14045168 7 1 C11.98192753 6.57711356 13.96053307 12.64599555 14 20 C14.01417969 20.77214844 14.02835938 21.54429687 14.04296875 22.33984375 C14.05954784 24.22654402 14.0342993 26.11353867 14 28 C12.7625 28.433125 11.525 28.86625 10.25 29.3125 C7.08403441 30.49131697 4.56878575 31.75231247 2 34 C2.75 32.0625 2.75 32.0625 4 30 C6.125 29.25 6.125 29.25 8 29 C8 28.01 8 27.02 8 26 C4.13236554 24.12456646 4.13236554 24.12456646 0 25 C-0.33 24.34 -0.66 23.68 -1 23 C-1.66 23.66 -2.32 24.32 -3 25 C-2.86722656 24.27554688 -2.73445312 23.55109375 -2.59765625 22.8046875 C-2.23312142 20.80905889 -1.8712483 18.81294267 -1.51171875 16.81640625 C-1.14759958 14.81236104 -0.76692044 12.81129422 -0.375 10.8125 C0.11021283 7.17340374 0.06328257 3.67038927 0 0 Z " fill="#CA192B" transform="translate(144,126)"/>
<path d="M0 0 C3 1 3 1 4.08984375 3.05078125 C5.2243927 6.72710939 5.91458671 10.3994355 6.5625 14.1875 C7.303781 19.23758809 7.303781 19.23758809 9 24 C9.63297272 32.86161804 7.07984122 40.19508636 3 48 C2.30028027 49.98867713 1.62335603 51.98608051 1 54 C0.67 54 0.34 54 0 54 C0 36.18 0 18.36 0 0 Z " fill="#3A4247" transform="translate(122,143)"/>
<path d="M0 0 C6.68534855 0.78651159 10.54691328 4.19264487 14.6875 9.1875 C20.79176243 17.4795733 21.46285601 24.8685963 21 35 C21.886875 35.226875 22.77375 35.45375 23.6875 35.6875 C27.50512329 37.20014319 29.42667555 38.82118744 32 42 C32 43.32 32 44.64 32 46 C29.10093498 45.57050889 28.02627098 45.0254983 25.875 42.9375 C21.72672047 40.14192032 17.87182388 40.13977982 13 41 C10.62280307 42.87501931 10.62280307 42.87501931 9 45 C7.68 45 6.36 45 5 45 C5.49846289 41.31137465 6.0241647 39.31453856 9 37 C12.085903 35.1086401 13.17320731 35 17 35 C16.76014428 33.11541936 16.5186553 31.23103411 16.26953125 29.34765625 C16.0939764 27.81854804 15.963979 26.28330625 15.88671875 24.74609375 C15.55925537 19.36633826 14.19133882 16.02184906 11.05859375 11.62890625 C10 10 10 10 10 8 C8.68 7.67 7.36 7.34 6 7 C6 6.34 6 5.68 6 5 C4.35 4.67 2.7 4.34 1 4 C0.67 2.68 0.34 1.36 0 0 Z " fill="#4D545A" transform="translate(141,119)"/>
<path d="M0 0 C7.26 0 14.52 0 22 0 C22.02682792 3.81254623 22.04675477 7.62490612 22.0625 11.4375 C22.07087891 12.52611328 22.07925781 13.61472656 22.08789062 14.73632812 C22.09272461 16.28803711 22.09272461 16.28803711 22.09765625 17.87109375 C22.10551147 19.30859985 22.10551147 19.30859985 22.11352539 20.77514648 C22 23 22 23 21 24 C18.66702567 24.04092937 16.33294775 24.04241723 14 24 C14 22.02 14 20.04 14 18 C14.99 17.67 15.98 17.34 17 17 C17.33 14.69 17.66 12.38 18 10 C16.35 10 14.7 10 13 10 C13 8.02 13 6.04 13 4 C10.36 4 7.72 4 5 4 C5 4.66 5 5.32 5 6 C3.68 5.67 2.36 5.34 1 5 C0.67 3.35 0.34 1.7 0 0 Z " fill="#AD2738" transform="translate(143,188)"/>
<path d="M0 0 C2.64 0 5.28 0 8 0 C8 1.98 8 3.96 8 6 C9.65 6 11.3 6 13 6 C13 8.31 13 10.62 13 13 C11.35 13 9.7 13 8 13 C8 14.65 8 16.3 8 18 C5.36 18 2.72 18 0 18 C0 16.35 0 14.7 0 13 C-1.65 13 -3.3 13 -5 13 C-5 10.69 -5 8.38 -5 6 C-2.69 6 -0.38 6 2 6 C2.33 5.01 2.66 4.02 3 3 C2.01 2.67 1.02 2.34 0 2 C0 1.34 0 0.68 0 0 Z " fill="#F3D4D8" transform="translate(148,192)"/>
<path d="M0 0 C2.12265493 1.04672204 4.21928826 2.11971349 6.296875 3.25390625 C11.66189331 6.11581888 15.92015076 7.6622306 22 8 C19.70965533 12.02784753 17.40174242 16.03712501 15 20 C10.7200338 19.5244482 8.80581661 17.08639827 6 14 C5.278125 13.0925 4.55625 12.185 3.8125 11.25 C2.19690923 8.92512612 2.19690923 8.92512612 0 8 C0 5.36 0 2.72 0 0 Z " fill="#FAF8F7" transform="translate(100,123)"/>
<path d="M0 0 C1.32 0 2.64 0 4 0 C4.33 0.99 4.66 1.98 5 3 C3.68 2.67 2.36 2.34 1 2 C1.10699219 2.75023438 1.21398437 3.50046875 1.32421875 4.2734375 C2.08267994 10.74890186 1.941073 15.60733953 -0.2421875 21.75390625 C-1.14935664 24.20582724 -1.14935664 24.20582724 -1.5 27.75 C-2.05787383 31.37617993 -3.33782467 33.73957916 -5 37 C-6.09873399 40.30614527 -7.06490153 43.64425654 -8 47 C-8.66 47 -9.32 47 -10 47 C-9.979375 47.721875 -9.95875 48.44375 -9.9375 49.1875 C-9.99820559 51.91925138 -10.39258535 54.34256091 -11 57 C-10.34 57 -9.68 57 -9 57 C-8.34 54.69 -7.68 52.38 -7 50 C-5.68 50.33 -4.36 50.66 -3 51 C-5.10048451 53.77364212 -7.20602072 56.54340874 -9.3125 59.3125 C-9.90740234 60.09818359 -10.50230469 60.88386719 -11.11523438 61.69335938 C-11.69208984 62.45068359 -12.26894531 63.20800781 -12.86328125 63.98828125 C-13.39219971 64.68477783 -13.92111816 65.38127441 -14.46606445 66.09887695 C-15.88566484 67.85829574 -17.36899888 69.4374026 -19 71 C-18.37775273 67.71430181 -17.63622524 64.5190853 -16.6875 61.3125 C-16.46449219 60.54550781 -16.24148437 59.77851563 -16.01171875 58.98828125 C-15.13131957 56.3878744 -14.15360725 53.88043684 -13.1171875 51.33984375 C-6.51568273 35.0021431 -1.17911239 17.64602688 0 0 Z " fill="#B33544" transform="translate(143,124)"/>
<path d="M0 0 C0.99 0.33 1.98 0.66 3 1 C2.65066406 1.90621094 2.30132812 2.81242188 1.94140625 3.74609375 C-2.67050265 15.06819287 -2.67050265 15.06819287 -2.125 26.9375 C-1.75375 27.618125 -1.3825 28.29875 -1 29 C-0.67 29.66 -0.34 30.32 0 31 C-1.32 30.67 -2.64 30.34 -4 30 C-4.33 28.02 -4.66 26.04 -5 24 C-5.66 24 -6.32 24 -7 24 C-7 31.26 -7 38.52 -7 46 C-7.33 46 -7.66 46 -8 46 C-8.33 38.74 -8.66 31.48 -9 24 C-12.05270463 23.84188612 -12.05270463 23.84188612 -15 25 C-15 25.66 -15 26.32 -15 27 C-16.32 27.33 -17.64 27.66 -19 28 C-14.70945369 21.22545319 -9.93666258 14.84988126 -5.05175781 8.49804688 C-4.54354492 7.83095703 -4.03533203 7.16386719 -3.51171875 6.4765625 C-2.82275513 5.5805835 -2.82275513 5.5805835 -2.11987305 4.66650391 C-0.81185883 2.88001323 -0.81185883 2.88001323 0 0 Z " fill="#E8C9D2" transform="translate(146,164)"/>
<path d="M0 0 C0.65651228 6.86353746 0.65651228 6.86353746 -1.03125 9.78515625 C-2.44679096 11.45404687 -3.92396919 12.98205386 -5.5 14.5 C-6.02464844 15.03625 -6.54929688 15.5725 -7.08984375 16.125 C-8.3756413 17.43417569 -9.68550163 18.71964444 -11 20 C-14.11819946 18.65790559 -15.84546672 17.32585491 -17.8125 14.5625 C-18.47185547 13.66724609 -18.47185547 13.66724609 -19.14453125 12.75390625 C-20 11 -20 11 -19 8 C-16.453125 6.97265625 -16.453125 6.97265625 -13.25 6.0625 C-8.94328505 4.73775039 -3.91862524 0 0 0 Z " fill="#DBE5E6" transform="translate(143,123)"/>
<path d="M0 0 C9.53803813 9.33863663 17.20993087 20.21039023 25 31 C23.68 31.33 22.36 31.66 21 32 C20.67 31.01 20.34 30.02 20 29 C19.34 28.67 18.68 28.34 18 28 C18 27.01 18 26.02 18 25 C15.74239143 24.21329449 15.74239143 24.21329449 13 24 C11.30280873 24.94726954 9.63064764 25.94228261 8 27 C7.34 26.67 6.68 26.34 6 26 C6.66 25.34 7.32 24.68 8 24 C8.3176246 22.08993694 8.3176246 22.08993694 8.25 20 C8.25515625 19.29875 8.2603125 18.5975 8.265625 17.875 C8.15705515 15.7564331 8.15705515 15.7564331 6 14 C3.93125966 13.3574765 3.93125966 13.3574765 2 13 C-0.28571429 4.57142857 -0.28571429 4.57142857 0 0 Z " fill="#F0E6E9" transform="translate(90,159)"/>
<path d="M0 0 C0 0.66 0 1.32 0 2 C0.9075 2.226875 1.815 2.45375 2.75 2.6875 C6 4 6 4 7.9375 6.4375 C10.64603077 9.80264429 12.98299292 10.53224741 17 12 C16.67 12.66 16.34 13.32 16 14 C14.32700041 13.34938905 12.66140763 12.67966676 11 12 C10.278125 11.731875 9.55625 11.46375 8.8125 11.1875 C7 10 7 10 6.3125 7.5625 C4.69695166 4.4083342 3.83864657 4.3226738 0.5625 3.25 C-0.95464582 2.82010036 -2.47528788 2.40224134 -4 2 C-4.99 1.67 -5.98 1.34 -7 1 C-16.01606811 0.31138379 -23.68287642 1.30890388 -31 7 C-31.763125 7.78375 -32.52625 8.5675 -33.3125 9.375 C-35.72283344 11.72927918 -37.84212282 13.19663825 -40.6875 14.9375 C-43.50304901 16.78958872 -44.84742683 17.73757415 -46.5625 20.6875 C-47.72188459 29.46569761 -46.85745673 38.22638022 -46 47 C-46.66 47 -47.32 47 -48 47 C-48.81992754 40.9091097 -49.15432968 34.82728348 -49.25 28.6875 C-49.27126953 28.00623047 -49.29253906 27.32496094 -49.31445312 26.62304688 C-49.34499961 22.18507869 -48.61544561 19.56998781 -46 16 C-45.360625 15.0925 -44.72125 14.185 -44.0625 13.25 C-41.87400392 10.86254973 -41.07904181 10.49661965 -38 10 C-34.75150023 8.27773504 -34.75150023 8.27773504 -34 5 C-25.02638713 -3.7190423 -11.39421106 -2.19538143 0 0 Z " fill="#6E8E94" transform="translate(135,24)"/>
<path d="M0 0 C-0.125 2.25 -0.125 2.25 -1 5 C-2.423125 5.8353125 -2.423125 5.8353125 -3.875 6.6875 C-8.35106816 9.99979044 -8.95147258 13.68587237 -10 19 C-10.20803506 20.51816063 -10.39780042 22.03902886 -10.5625 23.5625 C-10.7790625 25.2640625 -10.7790625 25.2640625 -11 27 C-11.66 27.33 -12.32 27.66 -13 28 C-13.46651207 30.12576782 -13.46651207 30.12576782 -13.625 32.5625 C-13.69976562 33.38878906 -13.77453125 34.21507812 -13.8515625 35.06640625 C-13.90054688 35.70449219 -13.94953125 36.34257812 -14 37 C-14.33 37 -14.66 37 -15 37 C-15.81071211 15.06573341 -15.81071211 15.06573341 -9 5.0625 C-4.09090909 0 -4.09090909 0 0 0 Z " fill="#664C58" transform="translate(101,120)"/>
<path d="M0 0 C0.66 0 1.32 0 2 0 C6.65665331 5.91654359 8.95984676 11.51811272 9 19 C9.01417969 19.77214844 9.02835938 20.54429687 9.04296875 21.33984375 C9.05954784 23.22654402 9.0342993 25.11353867 9 27 C7.7625 27.433125 6.525 27.86625 5.25 28.3125 C2.08403441 29.49131697 -0.43121425 30.75231247 -3 33 C-2.25 31.0625 -2.25 31.0625 -1 29 C1.125 28.25 1.125 28.25 3 28 C3 27.01 3 26.02 3 25 C2.01 24.67 1.02 24.34 0 24 C0 22.68 0 21.36 0 20 C1.98 20 3.96 20 6 20 C5.71125 19.195625 5.4225 18.39125 5.125 17.5625 C4.26214308 14.83011976 3.588369 12.22991797 3 9.4375 C2.2947708 6.12404216 1.40020776 3.10046005 0 0 Z " fill="#B33E4B" transform="translate(149,127)"/>
<path d="M0 0 C2.94555011 2.94555011 3.94828021 4.55668755 4.4375 8.75 C4.14271858 14.3192632 2.52838176 19.76621127 -0.625 24.375 C-2.47563202 27.90802477 -2.42937952 31.12531035 -2.69140625 35.06640625 C-3.1605447 39.52619075 -4.22531255 43.87321484 -6 48 C-6.99 48.495 -6.99 48.495 -8 49 C-8 49.99 -8 50.98 -8 52 C-7.34 52.33 -6.68 52.66 -6 53 C-6.33 53.66 -6.66 54.32 -7 55 C-10.465 53.515 -10.465 53.515 -14 52 C-12.82716034 49.22783353 -11.64460332 47.631171 -9.51953125 45.42578125 C-6.27886772 41.59020481 -5.91194069 37.68049905 -5.375 32.8125 C-5.18582508 31.21346062 -4.98572483 29.61566664 -4.7734375 28.01953125 C-4.69528809 27.31932861 -4.61713867 26.61912598 -4.53662109 25.89770508 C-3.87238803 23.54871343 -2.73187166 22.67894566 -1 21 C1.28191352 13.914058 1.82932935 7.31731739 0 0 Z " fill="#657D80" transform="translate(155,67)"/>
<path d="M0 0 C3.875 1.875 3.875 1.875 5 3 C5.28814021 5.92942542 5.48613457 8.14948367 5 11 C2.875 13.5625 2.875 13.5625 0 15 C-3.3125 14.75 -3.3125 14.75 -6 14 C-5.814375 13.443125 -5.62875 12.88625 -5.4375 12.3125 C-4.83463761 9.94391319 -4.83463761 9.94391319 -5.5625 7.375 C-5.7790625 6.199375 -5.7790625 6.199375 -6 5 C-5.34 4.34 -4.68 3.68 -4 3 C-3.01 3 -2.02 3 -1 3 C-0.67 2.01 -0.34 1.02 0 0 Z " fill="#585E66" transform="translate(94,172)"/>
<path d="M0 0 C1.61725534 3.00950123 2.67582623 5.97103608 3.625 9.25 C3.88539062 10.14203125 4.14578125 11.0340625 4.4140625 11.953125 C4.60742188 12.62859375 4.80078125 13.3040625 5 14 C4.01 14 3.02 14 2 14 C2.72663416 17.06498832 2.72663416 17.06498832 4.953125 18.609375 C7.97090349 22.13395599 8.15165801 25.7448368 8.75 30.25 C8.87503906 31.09046875 9.00007813 31.9309375 9.12890625 32.796875 C9.43404863 34.86245421 9.71902401 36.93099497 10 39 C10.99 39.33 11.98 39.66 13 40 C14.96316807 42.93825154 15.22746706 45.26612009 15.125 48.75 C15.10695313 49.54921875 15.08890625 50.3484375 15.0703125 51.171875 C15.04710938 51.77515625 15.02390625 52.3784375 15 53 C14.34 52.34 13.68 51.68 13 51 C13.0928125 49.6078125 13.0928125 49.6078125 13.1875 48.1875 C12.93380163 43.87462765 11.12689866 42.82909878 8 40 C5.5529817 36.38045209 5.56705944 32.48331006 5.375 28.25 C5.33632812 27.55261719 5.29765625 26.85523437 5.2578125 26.13671875 C5.16401376 24.42489182 5.08093826 22.71248318 5 21 C4.01 20.67 3.02 20.34 2 20 C-1.15391602 14.41999474 -2.22316125 8.40791581 -2 2 C-1.34 1.34 -0.68 0.68 0 0 Z " fill="#DBC4BA" transform="translate(88,71)"/>
<path d="M0 0 C0 0.33 0 0.66 0 1 C-5.38027025 2.19088986 -10.45291384 3.2919519 -16 3 C-16.33 3.66 -16.66 4.32 -17 5 C-17.94875 5.433125 -18.8975 5.86625 -19.875 6.3125 C-23.1195911 7.70607414 -23.1195911 7.70607414 -24.375 10.4375 C-26.46507782 13.73339194 -28.66127289 14.45086138 -32.12890625 16.03515625 C-34.55198225 17.28463385 -35.72554302 18.60102216 -37 21 C-37.7966992 23.72279691 -38.16640435 26.28076782 -38.31640625 29.109375 C-38.35830078 29.86347656 -38.40019531 30.61757813 -38.44335938 31.39453125 C-38.50233398 32.56048828 -38.50233398 32.56048828 -38.5625 33.75 C-38.60568359 34.54277344 -38.64886719 35.33554687 -38.69335938 36.15234375 C-38.79902991 38.10137815 -38.89997966 40.05066748 -39 42 C-39.33 42 -39.66 42 -40 42 C-41.47977715 33.67625354 -42.77918351 24.38601088 -38 17 C-30.72 11 -30.72 11 -27 11 C-26.773125 10.4225 -26.54625 9.845 -26.3125 9.25 C-24.00198718 5.28912088 -20.23333823 2.6676787 -16 1 C-10.69898152 -0.26214726 -5.41338867 -0.09628557 0 0 Z " fill="#5A605F" transform="translate(128,24)"/>
<path d="M0 0 C-1.32 3.3 -2.64 6.6 -4 10 C-4.99 9.67 -5.98 9.34 -7 9 C-7.33 7.35 -7.66 5.7 -8 4 C-10.74676963 5.02022872 -13.17374222 6.10505344 -15.6875 7.625 C-18 9 -18 9 -20 9 C-20 9.66 -20 10.32 -20 11 C-23.50331713 14.40027839 -26.15833214 15.54961229 -31 16 C-26.13443316 9.18820643 -8.70081893 -4.35040947 0 0 Z " fill="#E3EDF1" transform="translate(91,128)"/>
<path d="M0 0 C0.66 0.33 1.32 0.66 2 1 C2.35044272 7.30796903 1.74090218 13.21365095 -1 19 C-1.99 19.33 -2.98 19.66 -4 20 C-4.04898438 20.85722656 -4.09796875 21.71445313 -4.1484375 22.59765625 C-5.16097591 38.08251088 -5.16097591 38.08251088 -8.46484375 41.52734375 C-9.91599824 42.75997145 -11.45292623 43.89014273 -13 45 C-12.67 43.68 -12.34 42.36 -12 41 C-11.34 41 -10.68 41 -10 41 C-9.80664062 39.92621094 -9.61328125 38.85242188 -9.4140625 37.74609375 C-9.15122282 36.30986267 -8.88819176 34.8736666 -8.625 33.4375 C-8.43550781 32.38079102 -8.43550781 32.38079102 -8.2421875 31.30273438 C-7.40718633 26.77285303 -6.33276044 22.40969867 -5 18 C-4.34 18 -3.68 18 -3 18 C-3 16.68 -3 15.36 -3 14 C-2.34 14 -1.68 14 -1 14 C-1.01160156 13.32453125 -1.02320313 12.6490625 -1.03515625 11.953125 C-1.04417969 11.06109375 -1.05320313 10.1690625 -1.0625 9.25 C-1.07410156 8.36828125 -1.08570313 7.4865625 -1.09765625 6.578125 C-1.00826198 4.2181162 -0.66912821 2.25501476 0 0 Z " fill="#CDB4AD" transform="translate(155,71)"/>
<path d="M0 0 C0.99 0.33 1.98 0.66 3 1 C6.45432329 9.11694897 8.3514979 21.0390012 5.05078125 29.40625 C3.15037802 32.33179188 1.50101771 33.8329941 -1.8125 34.9375 C-2.8953125 34.9684375 -2.8953125 34.9684375 -4 35 C-4 33.68 -4 32.36 -4 31 C-3.030625 30.71125 -2.06125 30.4225 -1.0625 30.125 C2.10664203 29.35785318 2.10664203 29.35785318 3 27 C3.68339221 17.57707283 2.53020478 9.06656713 0 0 Z " fill="#B0B6B9" transform="translate(171,165)"/>
<path d="M0 0 C0.97591583 3.38317487 0.85856655 5.5657338 0 9 C0.66 9 1.32 9 2 9 C2.66 6.69 3.32 4.38 4 2 C5.32 2.33 6.64 2.66 8 3 C5.89951549 5.77364212 3.79397928 8.54340874 1.6875 11.3125 C1.09259766 12.09818359 0.49769531 12.88386719 -0.11523438 13.69335938 C-0.69208984 14.45068359 -1.26894531 15.20800781 -1.86328125 15.98828125 C-2.39219971 16.68477783 -2.92111816 17.38127441 -3.46606445 18.09887695 C-4.88566484 19.85829574 -6.36899888 21.4374026 -8 23 C-6.43368893 14.75856886 -3.9701361 7.39266721 0 0 Z " fill="#AF2838" transform="translate(132,172)"/>
<path d="M0 0 C1.32 0 2.64 0 4 0 C4.1953125 2.05078125 4.390625 4.1015625 4.5859375 6.15234375 C4.72257812 6.76207031 4.85921875 7.37179688 5 8 C5.66 8.33 6.32 8.66 7 9 C5.74458443 11.51083114 4.49936512 11.87125446 2 13 C2.33 14.98 2.66 16.96 3 19 C2.01 19.66 1.02 20.32 0 21 C-2 19 -2 19 -2.1953125 17.0546875 C-2.13020833 15.03645833 -2.06510417 13.01822917 -2 11 C-0.68 10.34 0.64 9.68 2 9 C1.34 6.03 0.68 3.06 0 0 Z " fill="#535862" transform="translate(87,164)"/>
<path d="M0 0 C0.66 0.33 1.32 0.66 2 1 C2.33 12.55 2.66 24.1 3 36 C1.02 36.495 1.02 36.495 -1 37 C-0.67 24.79 -0.34 12.58 0 0 Z " fill="#DDF0F3" transform="translate(45,172)"/>
<path d="M0 0 C3.16115776 1.36983503 3.9927092 1.9890638 6 5 C5.64111965 7.96076291 5.15341979 8.84658021 3 11 C0.875 10.625 0.875 10.625 -1 10 C-1.99 11.485 -1.99 11.485 -3 13 C-4.3125 9.875 -4.3125 9.875 -5 6 C-3.64051603 3.50309917 -2.066728 2.01752019 0 0 Z " fill="#4E585D" transform="translate(121,133)"/>
<path d="M0 0 C0.33 0 0.66 0 1 0 C1.10957031 0.85722656 1.21914062 1.71445313 1.33203125 2.59765625 C2.58115086 11.63641889 2.58115086 11.63641889 6 20 C6.66 20.33 7.32 20.66 8 21 C9.32519451 24.97558354 9.37566333 28.82509225 9.62109375 32.9921875 C9.99704973 35.97658031 10.75798008 38.27459596 12 41 C11.01 41.495 11.01 41.495 10 42 C10 41.34 10 40.68 10 40 C9.34 40 8.68 40 8 40 C7.66517137 37.37518273 7.3320723 34.75016613 7 32.125 C6.90460938 31.37863281 6.80921875 30.63226563 6.7109375 29.86328125 C6 24.2265625 6 24.2265625 6 22 C5.01 21.67 4.02 21.34 3 21 C-0.31035245 14.37929511 -0.37130774 7.23362495 0 0 Z " fill="#749195" transform="translate(85,71)"/>
<path d="M0 0 C2.47261161 3.70891741 4.14841133 7.19909423 5.5 11.4375 C6.31442528 13.95932446 7.15543278 16.36813027 8.1875 18.8125 C9 21 9 21 9 25 C5.31353859 23.54144353 3.83856029 21.69770955 1.75 18.375 C1.22921875 17.55773437 0.7084375 16.74046875 0.171875 15.8984375 C-0.21484375 15.27195313 -0.6015625 14.64546875 -1 14 C0.32 14 1.64 14 3 14 C2.505 12.80375 2.01 11.6075 1.5 10.375 C0.14088765 6.78898524 -0.2899464 3.86595201 0 0 Z " fill="#BC3A4C" transform="translate(109,167)"/>
<path d="M0 0 C5.98866929 0.70454933 10.07729417 3.71206337 13.875 8.25 C14.57625 9.1575 15.2775 10.065 16 11 C15.34 12.32 14.68 13.64 14 15 C10 10.25 10 10.25 10 8 C8.68 7.67 7.36 7.34 6 7 C6 6.34 6 5.68 6 5 C4.35 4.67 2.7 4.34 1 4 C0.67 2.68 0.34 1.36 0 0 Z " fill="#504955" transform="translate(141,119)"/>
<path d="M0 0 C0.66 0 1.32 0 2 0 C2.66 1.98 3.32 3.96 4 6 C5.423125 5.9690625 5.423125 5.9690625 6.875 5.9375 C10 6 10 6 12 7 C11.67 8.32 11.34 9.64 11 11 C8.69 10.67 6.38 10.34 4 10 C4 12.31 4 14.62 4 17 C3.67 17 3.34 17 3 17 C2.87625 16.195625 2.7525 15.39125 2.625 14.5625 C2.315625 13.2940625 2.315625 13.2940625 2 12 C1.34 11.67 0.68 11.34 0 11 C0 7.37 0 3.74 0 0 Z " fill="#A02F3D" transform="translate(139,188)"/>
<path d="M0 0 C3 1 3 1 4.171875 2.6015625 C7.4748331 12.16767699 4.69752687 25.29984647 3 35 C2.67 35 2.34 35 2 35 C1.80598367 33.18818595 1.61995625 31.37551468 1.4375 29.5625 C1.33308594 28.55316406 1.22867188 27.54382813 1.12109375 26.50390625 C1.08113281 25.67761719 1.04117188 24.85132812 1 24 C1.33 23.67 1.66 23.34 2 23 C2.08669432 21.5112814 2.10703494 20.018555 2.09765625 18.52734375 C2.09443359 17.62822266 2.09121094 16.72910156 2.08789062 15.80273438 C2.07951172 14.85720703 2.07113281 13.91167969 2.0625 12.9375 C2.05798828 11.98810547 2.05347656 11.03871094 2.04882812 10.06054688 C2.0370011 7.70696935 2.02052025 5.35351523 2 3 C1.34 3 0.68 3 0 3 C0 2.01 0 1.02 0 0 Z " fill="#4F5353" transform="translate(152,40)"/>
<path d="M0 0 C1.875 0.3125 1.875 0.3125 4 1 C4.66 1.99 5.32 2.98 6 4 C6.98613281 4.44859375 6.98613281 4.44859375 7.9921875 4.90625 C10.64098265 6.34917343 11.05206612 7.72299467 12.125 10.5 C13.22816463 13.30805541 13.84266036 14.84266036 16 17 C15.625 19.125 15.625 19.125 15 21 C13.05847229 18.44052949 11.12251487 15.87689687 9.1875 13.3125 C8.36668945 12.2306543 8.36668945 12.2306543 7.52929688 11.12695312 C4.81004039 7.51775816 2.21917831 3.94780141 0 0 Z " fill="#C23547" transform="translate(92,160)"/>
<path d="M0 0 C5.75 2.625 5.75 2.625 8 6 C8 7.32 8 8.64 8 10 C5.13003234 9.57481961 3.96427463 8.96824411 1.75 7 C-1.92721728 4.32566016 -4.50614577 4.30466808 -9 4 C-9 3.67 -9 3.34 -9 3 C-8.071875 2.87625 -7.14375 2.7525 -6.1875 2.625 C-2.86074765 2.18466918 -2.86074765 2.18466918 0 0 Z " fill="#51555D" transform="translate(165,155)"/>
<path d="M0 0 C0 1.32 0 2.64 0 4 C-1.79036458 4.9765625 -3.58072917 5.953125 -5.37109375 6.9296875 C-7.16618315 7.91410024 -7.16618315 7.91410024 -8 10 C-9.32 10 -10.64 10 -12 10 C-11.50153711 6.31137465 -10.9758353 4.31453856 -8 2 C-4.914097 0.1086401 -3.82679269 0 0 0 Z " fill="#5B434F" transform="translate(158,154)"/>
<path d="M0 0 C0.99 0.33 1.98 0.66 3 1 C2.47599609 2.35931641 2.47599609 2.35931641 1.94140625 3.74609375 C-2.67050265 15.06819287 -2.67050265 15.06819287 -2.125 26.9375 C-1.75375 27.618125 -1.3825 28.29875 -1 29 C-0.67 29.66 -0.34 30.32 0 31 C-1.9375 30.625 -1.9375 30.625 -4 30 C-7.29098568 23.41802863 -4.84723651 14.15514042 -2.8515625 7.47265625 C-1.98100957 4.94485806 -1.01715254 2.47212291 0 0 Z " fill="#C0A1A8" transform="translate(146,164)"/>
<path d="M0 0 C0.66 0.33 1.32 0.66 2 1 C2 3.97 2 6.94 2 10 C1.01 10.33 0.02 10.66 -1 11 C-1.66 10.01 -2.32 9.02 -3 8 C-5.05925139 7.27617533 -5.05925139 7.27617533 -7 7 C-7 5.68 -7 4.36 -7 3 C-3.535 2.505 -3.535 2.505 0 2 C0 1.34 0 0.68 0 0 Z " fill="#EFF2F1" transform="translate(152,196)"/>
<path d="M0 0 C1.485 0.99 1.485 0.99 3 2 C5.04327655 2.30615395 5.04327655 2.30615395 7.2734375 2.265625 C8.0984375 2.26820313 8.9234375 2.27078125 9.7734375 2.2734375 C10.63195312 2.26570312 11.49046875 2.25796875 12.375 2.25 C13.22578125 2.25773438 14.0765625 2.26546875 14.953125 2.2734375 C19.40655452 2.25956389 22.95526588 2.09726955 27 0 C25.25 3.875 25.25 3.875 23 5 C19.69353096 5.26435731 16.37837073 5.23148851 13.0625 5.25 C12.14275391 5.270625 11.22300781 5.29125 10.27539062 5.3125 C9.39173828 5.31765625 8.50808594 5.3228125 7.59765625 5.328125 C6.78820557 5.3374707 5.97875488 5.34681641 5.14477539 5.35644531 C2.49422282 4.91594369 1.60257027 4.12041309 0 2 C0 1.34 0 0.68 0 0 Z " fill="#F6DBDF" transform="translate(139,212)"/>
<path d="M0 0 C0.33 0 0.66 0 1 0 C1.10957031 0.92039062 1.21914062 1.84078125 1.33203125 2.7890625 C2.33222613 10.77435817 3.66550137 18.44985776 5.609375 26.26953125 C5.73828125 27.17058594 5.8671875 28.07164062 6 29 C5.34 29.66 4.68 30.32 4 31 C3.690625 29.865625 3.38125 28.73125 3.0625 27.5625 C2.37075469 24.21224901 2.37075469 24.21224901 1 23 C0.79231771 21.52603261 0.63283983 20.0450874 0.5 18.5625 C0.20853056 15.15502495 0.20853056 15.15502495 -1 12 C-0.91219597 9.95501575 -0.75758462 7.91255052 -0.5625 5.875 C-0.46066406 4.77929688 -0.35882813 3.68359375 -0.25390625 2.5546875 C-0.17011719 1.71164063 -0.08632812 0.86859375 0 0 Z " fill="#CB3E50" transform="translate(99,125)"/>
<path d="M0 0 C0.66 0 1.32 0 2 0 C2 2.64 2 5.28 2 8 C1.01 8.495 1.01 8.495 0 9 C0 7.35 0 5.7 0 4 C-0.763125 4.825 -1.52625 5.65 -2.3125 6.5 C-6.17356001 9.80283447 -9.92836511 9.40334296 -14.8046875 9.17578125 C-15.52914062 9.11777344 -16.25359375 9.05976563 -17 9 C-13.22762623 7.03066335 -9.32411588 5.57752876 -5.33984375 4.09765625 C-2.99446022 2.99740121 -1.76877041 1.84225048 0 0 Z " fill="#EBD8D6" transform="translate(141,123)"/>
<path d="M0 0 C1.10703391 3.32110174 0.88418759 4.36385839 0.07421875 7.67578125 C-0.14556641 8.58650391 -0.36535156 9.49722656 -0.59179688 10.43554688 C-0.82962891 11.38494141 -1.06746094 12.33433594 -1.3125 13.3125 C-1.53873047 14.25029297 -1.76496094 15.18808594 -1.99804688 16.15429688 C-3.14514537 20.84516941 -4.37541618 25.44658902 -6 30 C-6.93975838 26.9867864 -7.00553316 24.98303571 -6.29296875 21.91796875 C-6.11830078 21.15033203 -5.94363281 20.38269531 -5.76367188 19.59179688 C-5.4784668 18.40166992 -5.4784668 18.40166992 -5.1875 17.1875 C-5.00896484 16.40568359 -4.83042969 15.62386719 -4.64648438 14.81835938 C-1.58386549 1.58386549 -1.58386549 1.58386549 0 0 Z " fill="#D7B1B6" transform="translate(142,131)"/>
<path d="M0 0 C2.625 0.375 2.625 0.375 5 1 C5.625 3.375 5.625 3.375 6 6 C5.34 6.66 4.68 7.32 4 8 C1.375 7.625 1.375 7.625 -1 7 C-1.625 4.625 -1.625 4.625 -2 2 C-1.34 1.34 -0.68 0.68 0 0 Z " fill="#BCC3CD" transform="translate(90,175)"/>
<path d="M0 0 C1 3 1 3 -0.07421875 5.26953125 C-0.87279297 6.52830078 -0.87279297 6.52830078 -1.6875 7.8125 C-2.24050781 8.69292969 -2.79351562 9.57335937 -3.36328125 10.48046875 C-5.21932428 13.3376233 -7.07603694 16.18805399 -9 19 C-9.66 18.67 -10.32 18.34 -11 18 C-7.89925376 11.41491005 -5.02502274 5.32061231 0 0 Z " fill="#E4F4F6" transform="translate(59,144)"/>
<path d="M0 0 C2.36526409 2.36526409 3.08606806 3.77512589 4 7 C3.8268941 9.85066321 3.56129776 12.50665408 3.125 15.3125 C3.02058594 16.05306641 2.91617188 16.79363281 2.80859375 17.55664062 C2.55081617 19.37280085 2.27700647 21.18667304 2 23 C1.67 23 1.34 23 1 23 C0.36338406 17.99801765 -0.22140486 12.99832596 -0.71875 7.98046875 C-0.96867616 5.79447067 -0.96867616 5.79447067 -2 3 C-1.34 2.01 -0.68 1.02 0 0 Z " fill="#5B5A65" transform="translate(157,131)"/>
<path d="M0 0 C0 0.66 0 1.32 0 2 C-1.98 2.66 -3.96 3.32 -6 4 C-6 4.66 -6 5.32 -6 6 C-9.50331713 9.40027839 -12.15833214 10.54961229 -17 11 C-12.61455516 5.1070585 -7.69073293 0 0 0 Z " fill="#E5F6F7" transform="translate(77,133)"/>
<path d="M0 0 C0.33 0 0.66 0 1 0 C1.875 2.6875 1.875 2.6875 2 6 C-2.59245578 11.51094694 -9.21781006 13.24817893 -16 15 C-16.99 15 -17.98 15 -19 15 C-18.34 13.68 -17.68 12.36 -17 11 C-16.01 11.33 -15.02 11.66 -14 12 C-9.74829156 11.17584637 -5.96683058 10.09158291 -3.0625 6.8125 C-2.711875 6.214375 -2.36125 5.61625 -2 5 C-1.34 5 -0.68 5 0 5 C0 3.35 0 1.7 0 0 Z " fill="#CCADA0" transform="translate(140,117)"/>
<path d="M0 0 C2.8125 0.625 2.8125 0.625 6 2 C9 6.8 9 6.8 9 10 C7.0625 9.6875 7.0625 9.6875 5 9 C4.67 8.01 4.34 7.02 4 6 C2.02 6.99 2.02 6.99 0 8 C0 5.36 0 2.72 0 0 Z " fill="#C11D2A" transform="translate(144,126)"/>
<path d="M0 0 C1.65 0 3.3 0 5 0 C5 2.31 5 4.62 5 7 C3.35 7 1.7 7 0 7 C0 8.65 0 10.3 0 12 C-2.64 12 -5.28 12 -8 12 C-8 10.35 -8 8.7 -8 7 C-7.67 8.32 -7.34 9.64 -7 11 C-5.02 11 -3.04 11 -1 11 C-1 9.02 -1 7.04 -1 5 C0.32 4.67 1.64 4.34 3 4 C3 3.34 3 2.68 3 2 C2.01 2 1.02 2 0 2 C0 1.34 0 0.68 0 0 Z " fill="#F4B9BE" transform="translate(156,198)"/>
<path d="M0 0 C2.8125 0.6875 2.8125 0.6875 6 2 C6.45375 2.78375 6.9075 3.5675 7.375 4.375 C9.46564866 7.75220167 11.68773935 8.5688988 15.2578125 10.10546875 C17 11 17 11 18 13 C13.37461811 11.79740071 9.05958744 10.60973478 5 8 C4.125 5.3125 4.125 5.3125 4 3 C3.01 3 2.02 3 1 3 C0.67 2.01 0.34 1.02 0 0 Z " fill="#484E4D" transform="translate(134,27)"/>
<path d="M0 0 C1.82195612 5.46586836 -1.14912129 11.23017228 -3.5625 16.25 C-4.036875 17.1575 -4.51125 18.065 -5 19 C-5.69971973 20.98867713 -6.37664397 22.98608051 -7 25 C-7.33 25 -7.66 25 -8 25 C-7.50857646 18.36578218 -5.65628587 13.07010512 -3 7 C-2.69320312 6.27683594 -2.38640625 5.55367187 -2.0703125 4.80859375 C-1.38875897 3.20207471 -0.69582203 1.60039068 0 0 Z " fill="#58333B" transform="translate(130,172)"/>
<path d="M0 0 C0.66 0 1.32 0 2 0 C6.72483403 6.00317109 8.75581643 11.43030936 9 19 C6.9654959 16.9654959 6.32946725 15.70645577 5.2734375 13.0859375 C4.9640625 12.32539063 4.6546875 11.56484375 4.3359375 10.78125 C3.86027344 9.59015625 3.86027344 9.59015625 3.375 8.375 C2.88773438 7.17230469 2.88773438 7.17230469 2.390625 5.9453125 C1.58921947 3.96536943 0.79401638 1.9829179 0 0 Z " fill="#E7C3CD" transform="translate(149,127)"/>
<path d="M0 0 C5.00284542 0.47646147 8.03079315 1.93288562 12 5 C12.99 6.485 12.99 6.485 14 8 C16.30144109 9.07136051 18.6340213 10.07989717 21 11 C20.67 11.66 20.34 12.32 20 13 C18.32700041 12.34938905 16.66140763 11.67966676 15 11 C14.278125 10.731875 13.55625 10.46375 12.8125 10.1875 C11 9 11 9 10.3125 6.5625 C8.67651369 3.36843148 7.69949947 3.27664959 4.375 2.1875 C2.92195569 1.77267189 1.46491133 1.37074916 0 1 C0 0.67 0 0.34 0 0 Z " fill="#6A898D" transform="translate(131,25)"/>
<path d="M0 0 C0.33 0.66 0.66 1.32 1 2 C0.67 2.66 0.34 3.32 0 4 C0.66 4 1.32 4 2 4 C2.33 4.99 2.66 5.98 3 7 C1.56640625 9.26171875 1.56640625 9.26171875 -0.4375 11.6875 C-1.09621094 12.49574219 -1.75492187 13.30398437 -2.43359375 14.13671875 C-2.95050781 14.75160156 -3.46742187 15.36648437 -4 16 C-4.99828099 12.87785944 -5.12380858 12.27119974 -3.6875 9.125 C-3.130625 8.09375 -2.57375 7.0625 -2 6 C-1.30028027 4.01132287 -0.62335603 2.01391949 0 0 Z " fill="#AB2E3E" transform="translate(129,179)"/>
<path d="M0 0 C3.55061321 2.68585068 4.18011949 6.38424305 5.1875 10.5 C5.36474609 11.17675781 5.54199219 11.85351562 5.72460938 12.55078125 C6.46404563 15.44571703 7 18.00067906 7 21 C7.66 21 8.32 21 9 21 C8.67 22.32 8.34 23.64 8 25 C5.47530171 21.21295257 4.29540264 17.36108695 2.875 13.0625 C2.59785156 12.25103516 2.32070312 11.43957031 2.03515625 10.60351562 C1.77347656 9.81783203 1.51179688 9.03214844 1.2421875 8.22265625 C1.0035498 7.50859619 0.76491211 6.79453613 0.51904297 6.05883789 C0 4 0 4 0 0 Z " fill="#F8D1D6" transform="translate(104,148)"/>
<path d="M0 0 C1 3 1 3 0.07421875 5.04296875 C-0.61220703 6.10451172 -0.61220703 6.10451172 -1.3125 7.1875 C-1.98732422 8.26064453 -1.98732422 8.26064453 -2.67578125 9.35546875 C-3.33126953 10.16951172 -3.33126953 10.16951172 -4 11 C-4.66 11 -5.32 11 -6 11 C-6 11.66 -6 12.32 -6 13 C-7.32 13.33 -8.64 13.66 -10 14 C-6.84577733 9.17403931 -3.71080883 4.42442592 0 0 Z " fill="#F3D8DB" transform="translate(137,178)"/>
<path d="M0 0 C3.63 0 7.26 0 11 0 C11 0.99 11 1.98 11 3 C8.69 3 6.38 3 4 3 C4 3.66 4 4.32 4 5 C2.68 4.67 1.36 4.34 0 4 C0 2.68 0 1.36 0 0 Z " fill="#AF2032" transform="translate(144,189)"/>
<path d="M0 0 C0 2.97 0 5.94 0 9 C-0.66 9 -1.32 9 -2 9 C-2.99 10.485 -2.99 10.485 -4 12 C-5.25 8.8125 -5.25 8.8125 -6 5 C-3.0212766 0 -3.0212766 0 0 0 Z " fill="#646E73" transform="translate(122,134)"/>
<path d="M0 0 C1.2065625 0.0309375 1.2065625 0.0309375 2.4375 0.0625 C2.4375 2.3725 2.4375 4.6825 2.4375 7.0625 C-0.5325 6.5675 -0.5325 6.5675 -3.5625 6.0625 C-3.605221 4.39638095 -3.60313832 2.72867115 -3.5625 1.0625 C-2.5625 0.0625 -2.5625 0.0625 0 0 Z " fill="#CB192C" transform="translate(160.5625,189.9375)"/>
<path d="M0 0 C3.26008643 3.16952847 6.22237877 6.39937989 9 10 C8.01 10.495 8.01 10.495 7 11 C7 10.34 7 9.68 7 9 C4.525 8.01 4.525 8.01 2 7 C1.67 7.99 1.34 8.98 1 10 C0.67 6.7 0.34 3.4 0 0 Z " fill="#F2D6DC" transform="translate(90,159)"/>
<path d="M0 0 C0.66 0.33 1.32 0.66 2 1 C2 4.63 2 8.26 2 12 C1.01 12 0.02 12 -1 12 C-1.92470553 7.28400182 -2.22923777 4.32734391 0 0 Z " fill="#515B61" transform="translate(119,142)"/>
<path d="M0 0 C2 1 2 1 3.125 3.25 C4.00513321 6.01613295 4.1645438 8.12048351 4 11 C4.99 11.33 5.98 11.66 7 12 C7.33 13.65 7.66 15.3 8 17 C5.59260552 16.03704221 4.25157752 15.38398674 2.8125 13.1875 C1.92065878 10.78638902 1.42116497 8.52698984 1 6 C0.814375 4.906875 0.62875 3.81375 0.4375 2.6875 C0.293125 1.800625 0.14875 0.91375 0 0 Z " fill="#774851" transform="translate(115,181)"/>
<path d="M0 0 C2.64 0 5.28 0 8 0 C8 1.98 8 3.96 8 6 C4.74456771 5.65120368 3.98126893 4.97866739 1.75 2.4375 C1.1725 1.633125 0.595 0.82875 0 0 Z " fill="#F8DBE2" transform="translate(150,148)"/>
<path d="M0 0 C0.66 0.33 1.32 0.66 2 1 C1.34 2.65 0.68 4.3 0 6 C-0.66 6 -1.32 6 -2 6 C-2.103125 6.78375 -2.20625 7.5675 -2.3125 8.375 C-3 11 -3 11 -6 13 C-5.49357808 8.64477147 -4.61588503 5.55760365 -2 2 C-1.34 2 -0.68 2 0 2 C0 1.34 0 0.68 0 0 Z " fill="#69919A" transform="translate(23,60)"/>
<path d="M0 0 C1.98 0 3.96 0 6 0 C6 1.98 6 3.96 6 6 C4.35 6 2.7 6 1 6 C0.67 4.02 0.34 2.04 0 0 Z " fill="#CA1929" transform="translate(141,206)"/>
<path d="M0 0 C0.66 0.33 1.32 0.66 2 1 C1.71125 1.495 1.4225 1.99 1.125 2.5 C-1.28436548 7.85414551 -2.29393648 13.12127036 -2 19 C-2.66 19 -3.32 19 -4 19 C-4.36182611 12.48713003 -3.29943477 7.11196911 -1 1 C-0.67 0.67 -0.34 0.34 0 0 Z " fill="#B93047" transform="translate(94,128)"/>
<path d="M0 0 C0.33 0.99 0.66 1.98 1 3 C-1.73161823 8.12178417 -5.48738261 11.42539858 -10 15 C-8.37815499 11.41486894 -6.20743761 8.41007677 -3.875 5.25 C-3.15054688 4.26515625 -2.42609375 3.2803125 -1.6796875 2.265625 C-1.12539062 1.51796875 -0.57109375 0.7703125 0 0 Z " fill="#DEEFF2" transform="translate(219,185)"/>
<path d="M0 0 C0.33 0 0.66 0 1 0 C1.42670076 3.48472283 1.64789556 6.0186845 -0.3359375 9.0234375 C-1.83609212 10.74896747 -3.36656784 12.40059768 -5 14 C-5.33 13.01 -5.66 12.02 -6 11 C-5.01 10.67 -4.02 10.34 -3 10 C-1.97299556 7.67108904 -1.97299556 7.67108904 -1.3125 4.9375 C-1.06113281 4.01839844 -0.80976563 3.09929687 -0.55078125 2.15234375 C-0.36902344 1.44207031 -0.18726563 0.73179688 0 0 Z " fill="#D1B7B0" transform="translate(148,102)"/>
<path d="M0 0 C1.32 0.33 2.64 0.66 4 1 C3.34 3.97 2.68 6.94 2 10 C1.34 10 0.68 10 0 10 C0 6.7 0 3.4 0 0 Z " fill="#654C40" transform="translate(150,74)"/>
<path d="M0 0 C1.875 0.3125 1.875 0.3125 4 1 C4.66 1.99 5.32 2.98 6 4 C6.680625 4.268125 7.36125 4.53625 8.0625 4.8125 C10 6 10 6 10.75 9.125 C10.87375 10.548125 10.87375 10.548125 11 12 C10.34 11.34 9.68 10.68 9 10 C9 9.01 9 8.02 9 7 C8.071875 6.773125 7.14375 6.54625 6.1875 6.3125 C2.49280817 4.7911563 1.67517239 3.53647504 0 0 Z " fill="#D12E42" transform="translate(92,160)"/>
<path d="M0 0 C0.99 0.33 1.98 0.66 3 1 C3.33 6.28 3.66 11.56 4 17 C1.63699651 14.63699651 1.48566556 13.4201502 0.875 10.1875 C0.70742187 9.33542969 0.53984375 8.48335937 0.3671875 7.60546875 C0.004448 5.03156189 -0.06523407 2.59538412 0 0 Z " fill="#F9CBD2" transform="translate(100,131)"/>
<path d="M0 0 C1.65 0.33 3.3 0.66 5 1 C4.67 2.32 4.34 3.64 4 5 C1.03 4.505 1.03 4.505 -2 4 C-1.34 2.68 -0.68 1.36 0 0 Z " fill="#5D4A57" transform="translate(146,194)"/>
<path d="M0 0 C2.6875 0.875 2.6875 0.875 5 2 C3 4 3 4 0.1796875 4.1953125 C-0.91085938 4.17210937 -2.00140625 4.14890625 -3.125 4.125 C-4.22070312 4.10695312 -5.31640625 4.08890625 -6.4453125 4.0703125 C-7.28835937 4.04710937 -8.13140625 4.02390625 -9 4 C-9 3.67 -9 3.34 -9 3 C-8.071875 2.87625 -7.14375 2.7525 -6.1875 2.625 C-2.86074765 2.18466918 -2.86074765 2.18466918 0 0 Z " fill="#575B65" transform="translate(165,155)"/>
<path d="M0 0 C3.16115776 1.36983503 3.9927092 1.9890638 6 5 C1.545 7.97 1.545 7.97 -3 11 C-1 7 -1 7 1.125 6.25 C1.74375 6.1675 2.3625 6.085 3 6 C3 5.01 3 4.02 3 3 C2.01 2.67 1.02 2.34 0 2 C0 1.34 0 0.68 0 0 Z " fill="#AA2B3E" transform="translate(149,149)"/>
<path d="M0 0 C1.65 0 3.3 0 5 0 C5 0.99 5 1.98 5 3 C4.34 3 3.68 3 3 3 C3 3.66 3 4.32 3 5 C1.68 5 0.36 5 -1 5 C-0.67 3.35 -0.34 1.7 0 0 Z " fill="#CE1929" transform="translate(158,207)"/>
<path d="M0 0 C1.32 0 2.64 0 4 0 C4.33 0.99 4.66 1.98 5 3 C2 5 2 5 -0.1875 4.625 C-0.785625 4.41875 -1.38375 4.2125 -2 4 C-1.34 2.68 -0.68 1.36 0 0 Z " fill="#53555A" transform="translate(168,195)"/>
<path d="M0 0 C0.33 0 0.66 0 1 0 C1.04898438 0.80824219 1.09796875 1.61648437 1.1484375 2.44921875 C1.22320312 3.51785156 1.29796875 4.58648437 1.375 5.6875 C1.44460937 6.74324219 1.51421875 7.79898438 1.5859375 8.88671875 C1.98760089 11.90677269 2.74069019 14.24078054 4 17 C3.34 17.33 2.68 17.66 2 18 C2 17.34 2 16.68 2 16 C1.34 16 0.68 16 0 16 C0 10.72 0 5.44 0 0 Z " fill="#809597" transform="translate(93,95)"/>
<path d="M0 0 C0.66 0.33 1.32 0.66 2 1 C-0.4715092 3.60158864 -3.12031542 5.85869608 -6 8 C-6.66 8 -7.32 8 -8 8 C-6.49776416 3.79373966 -3.71449966 2.26099979 0 0 Z " fill="#6B919A" transform="translate(58,23)"/>
<path d="M0 0 C0.99 0.33 1.98 0.66 3 1 C2.01 3.31 1.02 5.62 0 8 C-0.66 8 -1.32 8 -2 8 C-2.6875 6.25 -2.6875 6.25 -3 4 C-1.5625 1.75 -1.5625 1.75 0 0 Z " fill="#CB182C" transform="translate(134,173)"/>
<path d="M0 0 C-2.15266842 2.15266842 -3.84773744 2.93474462 -6.625 4.125 C-7.44226563 4.47820312 -8.25953125 4.83140625 -9.1015625 5.1953125 C-9.72804688 5.46085938 -10.35453125 5.72640625 -11 6 C-11 5.01 -11 4.02 -11 3 C-10.34 3 -9.68 3 -9 3 C-9 2.34 -9 1.68 -9 1 C-5.92677456 0.08941469 -3.19902639 -0.08886184 0 0 Z " fill="#70989F" transform="translate(80,130)"/>
<path d="M0 0 C1.46224799 0.42423244 2.91973412 0.86490245 4.375 1.3125 C5.18710938 1.55613281 5.99921875 1.79976563 6.8359375 2.05078125 C9 3 9 3 11 6 C9.53775201 5.57576756 8.08026588 5.13509755 6.625 4.6875 C5.81289062 4.44386719 5.00078125 4.20023438 4.1640625 3.94921875 C2 3 2 3 0 0 Z " fill="#DEBEB3" transform="translate(103,124)"/>
<path d="M0 0 C0.33 1.32 0.66 2.64 1 4 C0.01 4.495 0.01 4.495 -1 5 C-2.13350534 7.01669827 -2.13350534 7.01669827 -3 9 C-3.66 9 -4.32 9 -5 9 C-5 9.66 -5 10.32 -5 11 C-5.66 10.67 -6.32 10.34 -7 10 C-3.535 5.05 -3.535 5.05 0 0 Z " fill="#789AA2" transform="translate(28,51)"/>
<path d="M0 0 C0.66 0.33 1.32 0.66 2 1 C2 3.31 2 5.62 2 8 C1.01 8 0.02 8 -1 8 C-1 7.34 -1 6.68 -1 6 C-0.34 6 0.32 6 1 6 C1 5.01 1 4.02 1 3 C-0.98 3.33 -2.96 3.66 -5 4 C-5 3.34 -5 2.68 -5 2 C-2.625 0.9375 -2.625 0.9375 0 0 Z " fill="#C01D2F" transform="translate(162,204)"/>
<path d="M0 0 C1.60031344 3.20062687 0.03173691 5.72271806 -1 9 C-1.33 8.34 -1.66 7.68 -2 7 C-3.32 7.33 -4.64 7.66 -6 8 C-4.02 5.36 -2.04 2.72 0 0 Z " fill="#ECCAD2" transform="translate(144,169)"/>
<path d="M0 0 C0.66 0.33 1.32 0.66 2 1 C1.0479279 2.00596297 0.08812654 3.00461563 -0.875 4 C-1.40867187 4.556875 -1.94234375 5.11375 -2.4921875 5.6875 C-4 7 -4 7 -6 7 C-6 5.68 -6 4.36 -6 3 C-4.03533587 1.93224776 -2.03144641 0.93446535 0 0 Z " fill="#6B969A" transform="translate(64,137)"/>
<path d="M0 0 C1 2 1 2 0.0625 5.125 C-0.288125 6.07375 -0.63875 7.0225 -1 8 C-2.65 7.67 -4.3 7.34 -6 7 C-5.67 6.34 -5.34 5.68 -5 5 C-4.34 5.33 -3.68 5.66 -3 6 C-2.690625 5.195625 -2.38125 4.39125 -2.0625 3.5625 C-1 1 -1 1 0 0 Z " fill="#E3C9CE" transform="translate(126,192)"/>
<path d="M0 0 C2.95183101 2.95183101 3.08663988 5.95511947 4 10 C2.35 9.01 0.7 8.02 -1 7 C-0.67 4.69 -0.34 2.38 0 0 Z " fill="#CD4557" transform="translate(105,156)"/>
<path d="M0 0 C4.875 4.625 4.875 4.625 6 8 C4.68 7.67 3.36 7.34 2 7 C2 6.01 2 5.02 2 4 C1.34 4 0.68 4 0 4 C0 2.68 0 1.36 0 0 Z " fill="#6F969F" transform="translate(214,50)"/>
<path d="M0 0 C4.875 4.625 4.875 4.625 6 8 C4.68 8 3.36 8 2 8 C0 2.25 0 2.25 0 0 Z " fill="#FAD6DD" transform="translate(109,183)"/>
<path d="M0 0 C1.65 0 3.3 0 5 0 C4.67 1.32 4.34 2.64 4 4 C2.68 4.33 1.36 4.66 0 5 C0 3.35 0 1.7 0 0 Z " fill="#E28E99" transform="translate(89,147)"/>
<path d="M0 0 C3.0916909 2.52956528 3.90931332 5.22454612 5 9 C3.68 8.67 2.36 8.34 1 8 C0.67 5.36 0.34 2.72 0 0 Z " fill="#B32D3D" transform="translate(148,127)"/>
<path d="M0 0 C0.33 0.66 0.66 1.32 1 2 C0.67 2.99 0.34 3.98 0 5 C-0.66 5 -1.32 5 -2 5 C-2.33 6.32 -2.66 7.64 -3 9 C-3.66 9 -4.32 9 -5 9 C-4.5206753 4.68607774 -3.2542015 2.83430453 0 0 Z " fill="#7499A1" transform="translate(39,38)"/>
<path d="M0 0 C1.32 0.33 2.64 0.66 4 1 C3.67 3.97 3.34 6.94 3 10 C2.67 10 2.34 10 2 10 C1.67 8.35 1.34 6.7 1 5 C0.67 5 0.34 5 0 5 C0 3.35 0 1.7 0 0 Z " fill="#B52A3D" transform="translate(140,195)"/>
<path d="M0 0 C1.485 0.99 1.485 0.99 3 2 C3.1875 5.625 3.1875 5.625 3 9 C2.34 8.67 1.68 8.34 1 8 C0.40644386 5.35139573 0.25790731 2.70802678 0 0 Z " fill="#D1283A" transform="translate(106,164)"/>
<path d="M0 0 C0.33 0 0.66 0 1 0 C1.6875 2.8125 1.6875 2.8125 2 6 C0.5625 7.875 0.5625 7.875 -1 9 C-1.99 8.67 -2.98 8.34 -4 8 C-3.34 7.01 -2.68 6.02 -2 5 C-1.34 5 -0.68 5 0 5 C0 3.35 0 1.7 0 0 Z " fill="#C4A399" transform="translate(140,117)"/>
<path d="M0 0 C0 0.66 0 1.32 0 2 C-3.36683915 4.43160605 -4.73350364 5 -9 5 C-6.45523312 2.20075644 -3.92372883 0 0 0 Z " fill="#6C9099" transform="translate(76,14)"/>
<path d="M0 0 C1.65 0 3.3 0 5 0 C5 0.66 5 1.32 5 2 C5.99 2.66 6.98 3.32 8 4 C7.67 4.99 7.34 5.98 7 7 C5.83040013 6.02433888 4.66438823 5.044375 3.5 4.0625 C2.8503125 3.51722656 2.200625 2.97195312 1.53125 2.41015625 C1.0259375 1.94480469 0.520625 1.47945312 0 1 C0 0.67 0 0.34 0 0 Z " fill="#5D818A" transform="translate(179,138)"/>
<path d="M0 0 C0 0.99 0 1.98 0 3 C-4.625 5.125 -4.625 5.125 -8 4 C-3.375 0 -3.375 0 0 0 Z " fill="#525562" transform="translate(101,120)"/>
<path d="M0 0 C0.99 0 1.98 0 3 0 C2.67 2.97 2.34 5.94 2 9 C1.67 9 1.34 9 1 9 C0.67 6.03 0.34 3.06 0 0 Z " fill="#816859" transform="translate(89,71)"/>
<path d="M0 0 C0.88672454 2.4828287 1.14518218 3.62029277 0.1875 6.125 C-1 8 -1 8 -3 10 C-2.39009109 6.44219804 -1.4216319 3.3171411 0 0 Z " fill="#8E323F" transform="translate(127,185)"/>
<path d="M0 0 C0.33 0.99 0.66 1.98 1 3 C-0.8125 5.6875 -0.8125 5.6875 -3 8 C-3.66 8 -4.32 8 -5 8 C-3.62845496 5.04590299 -2.01136276 2.55991624 0 0 Z " fill="#F6CCD2" transform="translate(137,178)"/>
<path d="M0 0 C2 2 2 2 2.1953125 3.9453125 C2.13020833 5.96354167 2.06510417 7.98177083 2 10 C0.23934164 7.35901246 -0.52722899 6.0257345 -1 3 C-0.67 2.01 -0.34 1.02 0 0 Z " fill="#664A53" transform="translate(113,171)"/>
<path d="M0 0 C1.32 0 2.64 0 4 0 C3.25 4.75 3.25 4.75 1 7 C0.67 4.69 0.34 2.38 0 0 Z " fill="#636770" transform="translate(87,164)"/>
<path d="M0 0 C0.99 0.33 1.98 0.66 3 1 C3.625 3.875 3.625 3.875 4 7 C3.34 7.66 2.68 8.32 2 9 C1.34 6.03 0.68 3.06 0 0 Z " fill="#B5BCC1" transform="translate(171,165)"/>
<path d="M0 0 C0.33 0 0.66 0 1 0 C1.36923077 6.52307692 1.36923077 6.52307692 -0.5 8.9375 C-0.995 9.288125 -1.49 9.63875 -2 10 C-1.54177532 6.53058454 -1.10868317 3.32604951 0 0 Z " fill="#B22639" transform="translate(145,160)"/>
<path d="M0 0 C0.98120464 3.05263664 0.98120464 4.94736336 0 8 C-0.66 8 -1.32 8 -2 8 C-2.125 5.125 -2.125 5.125 -2 2 C-1.34 1.34 -0.68 0.68 0 0 Z " fill="#D5C8BF" transform="translate(88,71)"/>
<path d="M0 0 C3.86107457 2.57404971 3.94319692 4.61020259 5 9 C4.01 9.495 4.01 9.495 3 10 C0 3.375 0 3.375 0 0 Z " fill="#E8F8FA" transform="translate(229,72)"/>
<path d="M0 0 C-2.68841859 2.25245881 -4.64641875 3.88213958 -8 5 C-7.625 3.0625 -7.625 3.0625 -7 1 C-4.53721199 -0.231394 -2.7204945 -0.07159196 0 0 Z " fill="#E4F5F7" transform="translate(64,19)"/>
</svg>
