<?xml version="1.0" standalone="no"?>
<!DOCTYPE svg PUBLIC "-//W3C//DTD SVG 20010904//EN"
 "http://www.w3.org/TR/2001/REC-SVG-20010904/DTD/svg10.dtd">
<svg version="1.0" xmlns="http://www.w3.org/2000/svg"
 width="512.000000pt" height="512.000000pt" viewBox="0 0 512.000000 512.000000"
 preserveAspectRatio="xMidYMid meet">

<g transform="translate(0.000000,512.000000) scale(0.100000,-0.100000)"
fill="#000000" stroke="none">
<path d="M2350 4604 c-91 -24 -175 -71 -239 -134 -71 -70 -93 -109 -116 -210
-39 -172 -29 -362 27 -537 28 -86 33 -94 39 -70 9 33 66 379 74 449 4 26 15
59 27 73 19 24 26 26 62 21 23 -4 77 -18 121 -32 97 -31 220 -41 295 -25 30 7
86 26 124 44 l69 31 39 -44 c21 -25 55 -77 74 -117 32 -64 37 -83 45 -189 9
-116 30 -217 49 -229 11 -6 73 182 91 275 7 36 12 112 12 170 0 116 -15 175
-63 245 -15 22 -35 63 -44 92 -31 95 -86 152 -165 173 -114 30 -428 39 -521
14z"/>
<path d="M2920 3003 c0 -20 42 -67 105 -120 177 -148 223 -306 260 -909 l6
-91 -31 -13 c-61 -25 -101 -103 -86 -165 4 -14 21 -42 39 -62 60 -65 172 -55
217 20 43 70 14 170 -59 203 l-37 16 -12 193 c-19 312 -58 535 -115 658 -34
74 -98 151 -170 203 -69 51 -117 78 -117 67z m445 -1208 c51 -50 18 -135 -52
-135 -74 0 -108 82 -57 134 34 34 77 34 109 1z"/>
<path d="M2117 2968 c-173 -93 -299 -330 -343 -645 -8 -65 -18 -121 -20 -125
-3 -5 -18 -8 -33 -8 -45 0 -147 -57 -190 -107 -48 -54 -81 -136 -81 -201 0
-58 64 -423 79 -451 6 -11 21 -23 33 -26 13 -4 42 -16 65 -28 51 -26 73 -14
73 43 0 57 -22 70 -73 42 -34 -19 -43 -20 -54 -9 -20 20 -86 411 -77 461 15
91 69 162 156 205 136 68 295 19 374 -115 40 -68 41 -130 5 -339 -40 -230 -48
-249 -90 -211 -9 8 -28 18 -43 21 -24 6 -29 3 -38 -21 -13 -32 -4 -83 16 -91
7 -2 32 4 56 15 24 11 51 23 60 26 33 10 47 53 82 262 39 230 39 269 -6 357
-39 77 -138 150 -222 164 -35 5 -36 7 -36 48 0 69 30 224 61 320 51 152 118
254 223 337 45 36 93 95 84 103 -2 2 -29 -10 -61 -27z"/>
</g>
</svg>
